<?xml version="1.0" standalone="no"?><!DOCTYPE svg PUBLIC "-//W3C//DTD SVG 1.1//EN" "http://www.w3.org/Graphics/SVG/1.1/DTD/svg11.dtd" ><svg xmlns="http://www.w3.org/2000/svg"><metadata></metadata><defs><font id="Founder:FZDaBiaoSong-B06S	Regular" horiz-adv-x="256"><font-face font-family="FZDaBiaoSong-B06S" font-weight="400" font-stretch="normal" units-per-em="256" panose-1="3 0 5 9 0 0 0 0 0 0" ascent="224" descent="-61" x-height="0" bbox="3 -56 254 214" underline-thickness="12" underline-position="-49" unicode-range="U+0028-ff1a" /><missing-glyph horiz-adv-x="256" d="M40 32 q19 -1 21 -17 q-1 -15 -21 -16 q-20 1 -21 16 q2 15 21 17 ZM44 57 l-8 0 l-15 96 q-3 12 7 10 l23 0 q11 1 8 -10 l-15 -96 Z" /><glyph glyph-name="" unicode="(" d="M84 -48 l-11 0 q-56 47 -56 104 q0 60 56 107 l11 0 q-36 -41 -36 -107 q0 -63 36 -104 Z" /><glyph glyph-name="" unicode=")" d="M7 163 l11 0 q54 -47 55 -107 q0 -57 -55 -104 l-11 0 q35 40 35 104 q0 67 -35 107 Z" /><glyph glyph-name="" unicode=":" d="M40 107 q20 -1 21 -17 q-2 -16 -21 -17 q-19 1 -21 17 q2 15 21 17 ZM40 32 q19 -1 21 -17 q-1 -15 -21 -16 q-20 1 -21 16 q2 15 21 17 Z" /><glyph glyph-name="" unicode="q" d="M206 -45 l-4 -10 q-6 -1 -15 -1 q-33 0 -77 35 q-23 19 -35 22 q-59 18 -62 77 q7 80 98 86 q87 -5 92 -81 q-3 -64 -69 -83 q10 -5 27 -20 q24 -25 45 -25 ZM51 89 q3 -77 61 -82 q50 2 53 67 q-5 76 -60 79 q-52 -3 -54 -64 Z" /><glyph glyph-name="" unicode="&#x3001;" d="M38 29 l0 2 q33 -1 49 -18 q4 -7 4 -12 q-4 -17 -19 -10 q-3 2 -9 12 q-1 3 -2 5 q-9 14 -23 21 Z" /><glyph glyph-name="" unicode="&#x4e0e;" d="M81 203 q1 0 6 -1 q19 -4 20 -6 q0 -2 -3 -5 q-3 -4 -4 -8 l-2 -25 l93 0 q2 0 8 10 q7 11 10 11 q8 0 25 -14 q2 -1 2 -1 q6 -6 5 -8 q-1 -2 -10 -2 l-133 0 l-3 -44 l84 0 q2 0 5 5 q5 6 8 7 q32 -9 36 -22 q-1 -1 -3 -3 q-6 -4 -6 -8 q-1 -6 -1 -25 q0 -64 -17 -75 q-21 -12 -38 -10 q-2 1 -3 6 q-3 12 -16 16 q-1 1 -5 2 q-11 3 10 3 q23 0 29 7 q10 7 9 93 l-85 0 q-3 0 -7 -6 q-4 -7 -8 -8 q-20 3 -28 14 q0 1 2 3 q3 3 5 8 l5 74 q-1 15 10 12 ZM150 76 q5 0 20 -12 q1 -1 2 -2 q6 -6 5 -8 q0 -2 -7 -2 l-141 0 q-4 0 -6 2 q-1 2 3 2 l107 0 q1 0 5 7 q9 13 12 13 Z" /><glyph glyph-name="" unicode="&#x4e13;" d="M110 200 q0 1 0 1 q1 10 9 8 q41 -5 26 -16 q-3 -2 -3 -3 l-6 -27 l49 0 q1 0 5 7 q7 12 11 12 q8 0 23 -16 q4 -4 4 -6 q-1 -2 -5 -2 l-88 0 l-11 -39 l77 0 q2 0 7 8 q9 13 14 13 q7 -1 21 -17 q4 -5 3 -6 q-1 -2 -8 -2 l-115 0 l-10 -37 l51 0 q10 11 15 11 q37 -17 34 -30 q-1 -1 -6 -1 q-9 0 -15 -2 q-26 -12 -48 -28 q35 -8 45 -22 q13 -17 2 -27 q-17 -11 -31 4 q-24 33 -88 48 q-10 3 18 3 q22 0 43 -3 q26 31 31 42 l-47 0 q-2 0 -5 -4 q-4 -7 -10 -7 q-9 1 -24 13 q-6 4 3 11 q3 3 4 4 l7 25 l-73 0 q-4 0 -6 2 q-2 3 2 3 l78 0 l8 39 l-65 0 q-4 0 -4 3 q0 2 3 2 l67 0 l8 36 Z" /><glyph glyph-name="" unicode="&#x4e1a;" d="M137 188 q-1 16 12 13 q27 -3 21 -15 q-3 -7 -3 -11 l0 -125 q21 58 26 92 q1 7 2 8 q35 -4 42 -20 q-1 -2 -4 -4 q-4 -3 -6 -5 q-7 -12 -23 -35 q-26 -39 -36 -56 l-1 -31 l32 0 q2 1 5 7 q9 17 13 16 q8 0 28 -22 q3 -2 1 -4 q-1 -1 -9 -1 l-223 0 q-9 1 -5 4 l76 0 l0 185 q-2 17 13 14 q28 -2 19 -13 q-3 -3 -3 -4 l0 -182 l23 0 l0 189 ZM38 135 q33 -21 41 -60 q3 -22 -10 -33 q-17 -9 -25 8 q-1 3 -1 20 q0 48 -11 62 q-4 5 -2 6 q2 0 8 -3 Z" /><glyph glyph-name="" unicode="&#x4e24;" d="M215 205 q8 -1 23 -17 q6 -7 5 -9 q0 -2 -9 -2 l-59 0 q-9 0 -9 -10 q-1 -28 -1 -36 l18 0 q1 0 4 5 q5 9 8 9 q25 -7 34 -21 q-1 -2 -5 -6 q-3 -3 -3 -4 l0 -114 q1 -16 -25 -21 q-11 -3 -15 10 q-1 1 -1 2 q-3 6 -19 10 q-5 1 -5 2 q0 1 5 1 q30 0 30 13 l0 35 q-4 -10 -16 -9 q-13 2 -11 20 q2 18 -5 24 q-11 -48 -71 -73 q0 1 5 5 q23 19 33 37 q-5 -3 -11 -3 q-12 0 -10 17 q1 13 -2 18 q-12 -40 -45 -61 l0 -34 q1 -8 -17 -13 q-9 -4 -10 8 l0 146 q0 1 0 2 q-3 10 12 3 q5 -1 13 -5 q4 -2 6 -3 l21 0 q0 6 0 46 l-68 0 q-4 0 -5 3 q-1 2 3 2 l184 0 q0 0 4 5 q11 18 14 18 ZM121 177 q-11 1 -10 -8 q-2 -38 -2 -38 l27 0 q0 14 1 46 l-16 0 ZM66 126 q-9 1 -8 -9 l0 -83 q23 28 25 92 l-17 0 ZM136 126 l-27 0 q0 -2 -1 -7 q-1 -16 -3 -22 q20 -6 27 -20 q4 20 4 49 ZM164 126 q-1 -19 -4 -34 q21 -8 30 -20 l0 54 l-26 0 Z" /><glyph glyph-name="" unicode="&#x4e2a;" d="M107 209 q27 -3 40 -14 q0 -2 -3 -3 q-3 -1 -3 -2 q32 -64 107 -82 q3 0 -5 -5 q-12 -9 -16 -15 q-1 -1 -2 -4 q-3 -11 -14 -3 q-62 46 -73 104 q-47 -68 -120 -105 q-8 -4 -11 -4 q-2 1 4 5 q54 37 83 95 q5 9 8 23 q3 10 5 10 ZM121 132 q32 -2 23 -12 q-3 -3 -3 -4 l0 -133 q2 -7 -17 -8 q-16 -2 -14 8 l0 139 q0 11 9 10 q1 0 2 0 Z" /><glyph glyph-name="" unicode="&#x4e3b;" d="M98 202 q-7 8 22 1 q20 -5 26 -14 q10 -16 -3 -29 q-16 -12 -28 1 q-3 4 -2 13 q1 17 -15 28 ZM202 169 q9 -1 28 -20 q3 -4 2 -5 q0 -2 -5 -2 l-75 0 q-9 1 -8 -12 l0 -54 l33 0 q1 0 8 9 q9 11 11 11 q8 -2 24 -19 q3 -3 2 -5 q-1 -1 -7 -1 l-71 0 l0 -76 l55 0 q1 0 8 8 q8 11 11 12 q6 0 26 -17 q2 -3 1 -5 q-1 -2 -5 -2 l-227 0 q-4 0 -5 2 q-1 2 3 2 l99 0 l0 76 l-70 0 q-4 0 -6 3 q-1 2 3 2 l73 0 l0 66 l-78 0 q-5 0 -7 3 q-2 2 3 2 l155 0 q2 0 9 10 q7 12 10 12 Z" /><glyph glyph-name="" unicode="&#x4e66;" d="M106 196 q-1 10 8 9 q24 -3 27 -8 q-1 -3 -4 -5 q-2 -2 -2 -3 l0 -40 l28 0 q0 0 1 3 q4 9 7 10 q9 3 30 -13 q-2 16 -26 32 q-10 3 -9 5 q1 2 11 2 q45 -2 55 -24 q6 -22 -9 -28 q-10 -2 -17 3 q-1 0 -2 -1 q-6 -2 -6 -6 l-3 -45 q1 0 5 5 q3 5 5 5 q20 -5 30 -22 q-1 -4 -5 -7 q-4 -3 -4 -5 q-2 -45 -9 -58 q-17 -15 -36 -11 q-2 1 -3 6 q-3 9 -13 15 q-9 6 2 6 q20 0 23 8 q6 15 6 46 q0 3 0 5 l-61 0 l0 -97 q0 -10 -22 -10 q-8 0 -7 5 l0 101 l-78 0 q-7 2 -4 5 l82 0 l0 60 l-60 0 q-3 0 -6 3 q-1 2 2 2 l64 0 l0 47 ZM135 144 l0 -60 l32 0 l2 60 l-34 0 Z" /><glyph glyph-name="" unicode="&#x4eba;" d="M123 197 q34 -4 31 -9 q0 -2 -3 -5 q-3 -3 -4 -6 q-2 -7 -1 -20 q0 -4 0 -6 q10 -67 49 -103 q25 -22 48 -33 q6 -2 6 -4 q0 -2 -6 -3 q-16 -5 -26 -19 q-4 -5 -6 -5 q-28 17 -53 61 q-13 24 -18 82 q-9 -60 -35 -94 q-24 -30 -79 -50 q-7 -3 -9 -1 q0 1 7 5 q62 31 76 100 q8 37 9 92 q-1 15 1 17 q2 3 13 1 Z" /><glyph glyph-name="" unicode="&#x4ecb;" d="M114 210 q36 -9 34 -14 q0 -2 -4 -3 q-1 -1 -2 -1 q21 -53 97 -67 q9 -2 9 -3 q0 -2 -4 -5 q-8 -5 -13 -11 q-2 -2 -4 -8 q-3 -7 -7 -8 q-11 0 -39 19 l0 -124 q2 -13 -28 -12 q-6 -1 -6 7 l0 128 q-3 10 26 8 q-25 29 -38 71 q-40 -62 -98 -93 q-17 -9 -23 -10 q-3 1 11 10 q49 38 75 107 q2 13 14 9 ZM88 113 q28 0 27 -5 q0 -1 -1 -4 q-4 -6 -4 -15 q0 -52 -10 -71 q-8 -18 -43 -35 q-17 -8 -28 -10 q-7 0 8 9 q32 18 38 38 q8 19 4 83 q0 1 0 4 q-4 8 9 6 Z" /><glyph glyph-name="" unicode="&#x4ece;" d="M147 205 q29 0 31 -5 q0 -3 -2 -6 q-3 -4 -4 -11 q0 -18 0 -35 q6 -45 20 -75 q20 -36 47 -52 q10 -4 10 -5 q0 -2 -8 -5 q-8 -2 -18 -13 q-5 -5 -7 -5 q-14 5 -28 33 q-15 39 -18 85 q-5 -62 -38 -92 q-52 -43 -63 -34 q73 40 70 136 q0 40 -2 63 q-3 26 10 21 ZM65 199 q30 -2 30 -6 q0 -2 -3 -4 q-4 -3 -4 -11 q0 -40 -4 -82 q22 -4 32 -12 q13 -11 7 -26 q-8 -15 -23 -9 q-5 3 -6 15 q-1 18 -10 25 q-7 -36 -27 -62 q-41 -48 -44 -37 q45 49 44 128 q0 30 -1 49 q-1 13 -1 24 q-1 6 1 7 q1 2 9 1 Z" /><glyph glyph-name="" unicode="&#x4ed6;" d="M153 205 q30 -3 20 -15 q-2 -2 -2 -3 l0 -57 l19 7 q0 0 0 2 q4 13 8 15 q19 -1 34 -19 q-1 -2 -3 -4 q-6 -5 -6 -14 q0 -7 -1 -18 q-1 -20 -1 -31 q2 -34 -29 -36 q-6 0 -8 8 q-3 13 -13 15 l0 -23 q2 -9 -19 -11 q-8 -2 -8 7 l0 85 l-21 -8 l0 -80 q-9 -26 53 -23 q46 -4 52 34 q2 8 3 8 q2 -1 1 -9 q-2 -19 12 -29 q8 -6 6 -11 q1 -20 -79 -19 q-50 -1 -62 9 q-15 8 -14 38 l0 71 l-18 -7 q-4 -2 -7 -1 q-3 2 1 4 l24 10 l0 51 q-2 13 14 9 q25 -4 17 -14 q-3 -4 -3 -6 l0 -29 l21 8 l0 76 q-2 13 9 10 ZM194 133 l-23 -8 l0 -66 q22 -3 21 20 q1 32 2 54 ZM57 205 q37 -8 34 -13 q0 -1 -3 -4 q-4 -3 -6 -7 q-1 -2 -3 -7 q-11 -24 -19 -39 q2 -1 6 -2 q7 -2 7 -6 q0 -3 -3 -5 q-2 -1 -2 -2 l0 -133 q3 -12 -21 -13 q-8 -1 -7 10 l0 120 q-1 -1 -2 -3 q-18 -21 -23 -25 q-4 -4 -5 -3 q-1 1 2 6 q29 47 37 120 q1 8 8 6 Z" /><glyph glyph-name="" unicode="&#x4efb;" d="M95 163 q48 9 83 24 q7 3 15 8 q6 3 7 3 q28 -21 27 -33 q-1 -3 -11 -2 q-23 0 -47 -4 l0 -70 l27 0 q2 2 5 7 q10 17 14 16 q9 -1 25 -19 q5 -4 3 -6 q-2 -2 -10 -2 l-64 0 l0 -90 l16 0 q2 2 5 6 q11 14 15 14 q6 0 22 -15 q3 -1 4 -2 q3 -4 1 -6 q-1 -2 -8 -2 l-136 0 q-4 0 -6 2 q-2 3 2 3 l52 0 l0 90 l-63 0 l0 -100 q3 -8 -19 -12 q-12 -3 -12 8 l0 117 q-4 -4 -13 -14 q-9 -9 -13 -14 q-5 -5 -6 -4 q-1 1 2 7 q31 46 41 115 q1 19 15 12 q38 -11 33 -17 q0 -1 -5 -4 q-6 -3 -8 -6 q-11 -19 -23 -42 q12 -2 11 -6 q0 -3 -2 -8 q-1 -4 -1 -5 l0 -23 l63 0 l0 69 q-17 0 -47 0 q-6 0 -4 2 q2 1 10 3 Z" /><glyph glyph-name="" unicode="&#x4efd;" d="M51 209 q27 -1 41 -13 q0 -1 -2 -2 q-7 -4 -13 -18 q-7 -16 -18 -39 q16 -6 9 -12 q-2 -2 -2 -3 l0 -47 q31 28 45 90 q5 18 4 30 q0 3 2 4 q5 2 22 -4 q15 -5 14 -9 q0 -1 -2 -2 q-6 -4 -10 -15 q-14 -37 -36 -66 q-1 -2 -2 -3 l63 0 q1 0 4 5 q3 6 5 6 q7 0 15 -4 q-25 47 -25 97 q0 6 13 1 q2 -1 3 -1 q9 -3 -1 -9 q-6 -3 -6 -4 q6 -50 60 -79 q6 -3 6 -4 q0 -1 -4 -3 q-6 -3 -10 -8 q-4 -4 -7 -10 q-3 -10 -14 1 q-3 -2 -4 -6 q1 -71 -5 -85 q-3 -17 -27 -18 q-15 -2 -15 7 q0 7 -4 10 q-5 4 -14 6 q-5 2 -4 3 q0 1 7 1 q29 0 30 14 q2 22 2 75 l-17 0 q-7 -1 -9 -14 q-3 -53 -23 -75 q-26 -25 -57 -30 q0 0 4 3 q27 16 38 38 q10 21 10 78 l-20 0 q-1 -1 -5 -4 q-16 -14 -26 -20 l0 -80 q2 -9 -15 -12 q-15 -4 -13 7 l0 119 q-31 -32 -32 -28 q-1 0 4 8 q25 43 33 79 q4 19 5 36 q0 9 3 9 Z" /><glyph glyph-name="" unicode="&#x4f11;" d="M154 205 q25 -3 14 -13 q-2 -2 -2 -2 l0 -48 l28 0 q1 0 7 9 q9 13 12 13 q7 -2 23 -16 q6 -6 5 -8 q-1 -3 -11 -3 l-55 0 q11 -63 67 -99 q5 -3 5 -4 q0 -1 -4 -2 q-14 -3 -22 -11 q-1 -1 -2 -3 q-8 -13 -20 8 q-21 38 -33 110 l0 -149 q3 -12 -20 -13 q-11 -3 -10 12 l0 90 q-31 -50 -63 -63 q-1 0 4 6 q38 48 50 118 l-43 0 q-5 0 -8 2 q-2 3 3 3 l57 0 l0 54 q-4 13 18 9 ZM54 205 q33 -2 41 -16 q-1 -1 -4 -3 q-6 -2 -9 -9 q-1 -5 -10 -22 q-5 -9 -8 -15 q16 -6 12 -12 q-4 -5 -4 -9 l0 -128 q2 -12 -15 -14 q-13 -3 -13 9 l0 121 q-31 -37 -36 -36 q0 0 2 5 q23 31 35 84 q5 20 7 36 q0 8 2 9 Z" /><glyph glyph-name="" unicode="&#x4f1a;" d="M112 207 q42 -11 32 -18 q-3 -2 -3 -3 q22 -43 102 -60 q8 -1 5 -3 q-4 -2 -7 -4 q-8 -7 -15 -20 q-4 -12 -13 -7 q-56 26 -78 89 q-29 -40 -57 -58 q-52 -33 -68 -30 q64 40 90 103 q0 0 1 1 q4 13 11 10 ZM152 125 q8 1 25 -16 q4 -4 3 -5 q-1 -1 -9 -1 l-90 0 q-7 0 -10 2 q-2 2 4 2 l62 0 q1 0 4 6 q8 11 11 12 ZM196 85 q8 0 26 -15 q5 -4 5 -6 q0 -3 -4 -3 l-92 0 q14 -8 1 -12 q-5 -2 -6 -3 q-22 -19 -45 -41 l88 2 q-10 21 -25 31 q29 3 60 -24 q18 -20 3 -35 q-15 -11 -25 -1 q-2 2 -5 11 q-2 7 -4 10 q-78 -12 -116 -24 q-7 -2 -9 -2 q-4 0 -11 24 q-1 2 -1 2 q-2 7 9 8 q13 2 20 8 q16 17 26 46 l-54 0 q-12 1 -6 4 l148 0 q1 0 6 7 q9 13 11 13 Z" /><glyph glyph-name="" unicode="&#x4f4d;" d="M129 201 q34 0 47 -26 q5 -18 -12 -24 q-19 -4 -23 13 q-1 3 1 8 q5 15 -13 29 ZM177 113 q1 10 13 8 q39 -6 26 -19 q-4 -4 -5 -6 q-5 -9 -23 -52 q-14 -32 -21 -45 l32 0 q15 21 17 21 q5 0 25 -17 q2 -2 3 -3 q3 -3 1 -4 q-2 -1 -10 -1 l-148 0 q-5 0 -6 2 q0 2 4 2 l75 0 q5 31 11 73 q4 29 6 41 ZM100 114 q22 -2 47 -50 q9 -24 -10 -40 q-23 -13 -23 15 q0 2 1 7 q8 31 -15 68 ZM92 143 l103 0 q1 0 7 10 q8 12 10 12 q8 -1 24 -16 q6 -6 6 -8 q-1 -2 -9 -2 l-138 0 q-4 0 -5 2 q-1 2 2 2 ZM70 204 q41 -9 26 -20 q-3 -3 -4 -4 q-11 -19 -18 -34 q-1 -4 -2 -5 q10 -3 10 -6 q1 -2 -2 -5 q-3 -4 -3 -5 l0 -131 q2 -13 -21 -15 q-10 -3 -9 13 l0 113 q-29 -36 -31 -26 q35 55 43 114 q1 16 11 11 Z" /><glyph glyph-name="" unicode="&#x4f4f;" d="M70 203 q39 -7 27 -19 q-3 -3 -4 -4 q-11 -24 -22 -41 q15 -1 10 -8 q-2 -3 -2 -4 l0 -131 l62 0 l0 76 l-40 0 q-4 0 -6 2 q-1 3 3 3 l43 0 l0 65 l-50 0 q-4 0 -5 3 q-1 2 3 2 l109 0 q1 0 5 7 q7 15 10 15 q9 0 25 -18 q4 -5 3 -7 q-1 -2 -7 -2 l-51 0 q-12 1 -11 -11 l0 -54 l19 0 q1 0 6 8 q7 13 10 14 q8 0 25 -19 q4 -4 3 -5 q-1 -2 -7 -2 l-56 0 l0 -77 l31 0 q0 0 3 4 q8 16 11 16 q8 1 27 -17 q4 -5 4 -6 q0 -2 -5 -2 l-164 0 l0 -7 q0 -5 -13 -8 q-3 -1 -4 -1 q-13 -3 -12 9 l0 121 q-37 -45 -37 -35 q36 56 45 125 q-1 12 12 8 ZM168 191 q18 -14 6 -31 q-22 -18 -30 2 q-1 3 0 9 q3 14 -15 28 q-2 10 39 -8 Z" /><glyph glyph-name="" unicode="&#x4f53;" d="M140 206 q29 -1 32 -5 q0 -2 -3 -4 q-3 -3 -3 -6 l0 -40 l21 0 q1 0 5 7 q8 14 11 14 q7 -1 26 -19 q3 -3 3 -5 q-1 -2 -4 -2 l-53 0 q2 -55 63 -96 q6 -4 6 -5 q0 0 0 -1 q0 -1 -6 -5 q-1 -1 -2 -2 q-10 -8 -18 -17 q-1 -3 -2 -3 q-6 0 -15 11 l-35 0 l0 -42 q3 -17 -22 -16 q-10 -2 -9 8 l0 50 l-44 0 q-3 0 -5 2 q0 2 3 2 l46 0 l0 61 q-26 -40 -63 -65 l0 -41 q1 -12 -17 -15 q-12 -2 -12 6 l0 133 q-36 -44 -31 -30 q22 45 43 113 q4 21 17 12 q28 -12 18 -18 q-6 -4 -7 -6 q-11 -24 -27 -49 q24 -2 18 -11 q-2 -3 -2 -4 l0 -81 q40 45 52 109 l-41 0 q-4 0 -6 2 q-1 2 3 2 l55 0 l0 47 q0 9 5 9 ZM168 146 l-2 0 l0 -114 q0 0 4 6 q7 9 8 9 q6 0 14 -7 q-1 2 -3 7 q-17 35 -21 99 Z" /><glyph glyph-name="" unicode="&#x4f5c;" d="M127 202 q31 -5 31 -11 q1 -3 -2 -5 q-3 -2 -5 -6 q-2 -4 -8 -15 q-6 -12 -9 -16 l63 0 q1 0 6 9 q9 14 12 14 q9 -1 27 -20 q3 -4 3 -6 q-1 -2 -6 -2 l-64 0 q-9 1 -8 -11 l0 -38 l24 0 q1 0 6 8 q7 12 10 13 q10 -2 23 -18 q4 -6 3 -7 q0 -1 -7 -1 l-59 0 l0 -50 l29 0 q2 0 8 10 q8 13 11 13 q11 -3 26 -22 q4 -4 2 -5 q0 -1 -9 -1 l-67 0 l0 -52 q2 -12 -15 -13 q-18 -3 -16 9 l0 165 l-4 0 q-36 -59 -49 -57 q26 40 34 108 q1 9 10 7 ZM54 193 q1 11 10 8 q29 -6 32 -13 q0 -2 -4 -4 q-3 -2 -5 -6 q-6 -12 -14 -27 q-5 -10 -7 -14 q18 -6 10 -12 q-1 -2 -1 -2 l0 -139 q2 -10 -18 -12 q-11 -4 -11 7 l0 125 q-38 -44 -37 -34 q30 45 45 123 Z" /><glyph glyph-name="" unicode="&#x4fdd;" d="M66 208 q22 -6 26 -12 q0 -1 -2 -2 q-5 -4 -8 -12 q-7 -17 -16 -35 q-2 -6 -4 -9 q13 -3 13 -6 q0 -1 -2 -4 q-4 -5 -4 -9 l0 -33 l70 0 l0 38 l-12 0 l0 -11 q0 -7 -17 -11 q-1 -1 -2 -1 q-10 -4 -9 13 l0 69 q-1 16 9 11 q4 -1 12 -3 q12 -4 17 -4 l37 0 q4 0 8 8 q3 5 5 7 q24 -8 35 -23 q0 -1 -4 -4 q-5 -5 -5 -8 l0 -49 q1 -6 -19 -9 q-11 -4 -10 9 l0 6 l-6 0 q-10 0 -10 -11 l0 -27 l30 0 q2 0 7 9 q8 12 11 12 q5 -1 20 -15 q6 -6 6 -8 q0 -2 -8 -2 l-56 0 q15 -39 59 -58 q9 -3 1 -7 q-7 -3 -10 -5 q-3 -2 -7 -8 q-7 -9 -14 -2 q-29 26 -33 80 l-6 0 l0 -96 q1 -10 -20 -12 q-10 -2 -9 10 l0 72 q-24 -32 -70 -61 l0 -7 q3 -12 -18 -14 q-9 -3 -8 15 l0 119 q-8 -11 -26 -26 q-6 -5 -6 -3 q0 2 5 10 q23 38 34 105 q1 4 1 6 q1 9 3 10 q1 1 12 -2 ZM141 182 q-17 3 -14 -15 l0 -39 l57 0 l0 54 l-43 0 ZM69 82 l0 -82 q37 29 51 82 l-51 0 Z" /><glyph glyph-name="" unicode="&#x4fe1;" d="M66 197 q25 -2 37 -16 q-1 -2 -4 -3 q-5 -4 -9 -10 q-7 -12 -20 -32 q-3 -3 -4 -5 q16 -3 11 -10 q-3 -3 -3 -5 l0 -135 q2 -8 -18 -10 q-11 -2 -10 6 l0 120 q-26 -29 -34 -31 q-1 1 5 13 q18 33 29 63 q3 9 9 27 q9 29 11 28 ZM127 201 q38 2 49 -16 q5 -24 -17 -28 q-14 0 -16 17 q-1 7 -2 9 q-4 7 -11 14 q-3 3 -3 4 ZM217 177 q6 -1 25 -19 q3 -3 3 -5 q-1 -2 -5 -2 l-153 0 q-3 0 -4 3 q-1 2 2 2 l118 0 q0 0 4 6 q8 15 10 15 ZM200 139 q3 0 12 -8 q5 -4 7 -5 q4 -4 3 -6 q-1 -3 -6 -3 l-116 0 q-3 0 -4 2 q-1 2 1 2 l87 0 q2 0 8 9 q7 9 8 9 ZM199 104 q5 -1 19 -14 q5 -4 5 -6 q-1 -2 -7 -2 l-114 0 q-4 0 -5 3 q0 2 3 2 l85 0 q0 0 4 5 q8 12 10 12 ZM193 69 q21 -6 32 -20 q-1 -2 -4 -6 q-3 -3 -4 -5 l0 -44 q4 -17 -20 -19 q-10 -1 -10 9 l0 10 l-57 0 l0 -9 q1 -13 -19 -12 q-1 0 -2 0 q-9 -1 -8 6 l0 74 q-2 11 15 6 q3 -1 11 -3 q4 -1 5 -1 l50 0 q1 0 4 5 q5 8 7 9 ZM187 -2 l0 52 l-45 0 q-13 0 -12 -9 l0 -43 l57 0 Z" /><glyph glyph-name="" unicode="&#x514d;" d="M139 164 l-38 0 q-13 -15 -25 -30 l57 0 q3 12 6 30 ZM146 130 l-9 -45 l46 0 l0 45 l-37 0 ZM77 116 l0 -31 l30 0 q3 15 5 45 l-26 0 q-10 1 -9 -14 ZM104 202 q23 -11 21 -17 q-1 -1 -4 -3 q-10 -4 -17 -14 l30 0 q1 0 4 6 q5 10 7 10 q27 -7 33 -23 q-1 -4 -9 -6 q-18 -5 -26 -21 l35 0 q1 0 3 5 q5 10 10 11 q22 -5 30 -20 q1 -3 -4 -8 q-3 -3 -3 -5 l0 -43 q0 -15 -21 -15 q-10 1 -10 9 l0 13 l-15 0 q-11 1 -10 -8 q1 -25 2 -43 q-2 -13 17 -13 q15 0 28 3 q12 1 23 41 q2 9 3 8 q1 -1 1 -16 q0 -5 0 -8 q1 -13 10 -25 q6 -7 6 -11 q-1 -15 -23 -22 q-39 -4 -70 0 q-27 1 -25 39 q0 2 0 9 q-1 17 -1 24 q-16 -33 -39 -50 q-19 -13 -44 -22 q-38 -12 -17 1 q60 29 77 92 l-29 0 l0 -17 q1 -10 -20 -11 q-5 -1 -6 0 q-1 1 -1 6 l0 55 q-12 -9 -30 -17 q-10 -4 1 6 q40 34 63 97 q2 16 20 3 Z" /><glyph glyph-name="" unicode="&#x515a;" d="M119 209 q26 -2 25 -5 q0 -3 -3 -6 q-3 -3 -3 -6 l0 -51 l17 0 q6 25 9 48 q1 11 2 11 q29 -6 39 -17 q0 -2 -5 -4 q-7 -2 -11 -6 q-4 -4 -12 -15 q-8 -10 -14 -17 l35 0 q1 0 5 6 q5 9 8 8 q13 -5 28 -19 q11 -11 2 -11 q-29 1 -38 -5 q-11 -6 -9 -1 q1 0 1 1 q8 16 3 16 l-143 0 q5 -26 -12 -36 q-23 -9 -26 11 q0 7 9 14 q13 8 14 21 q0 0 0 1 q-1 13 4 7 q4 -5 8 -11 q0 0 1 -2 l57 0 l0 54 q-2 19 9 14 ZM66 193 q30 -7 32 -24 q-1 -17 -18 -18 q-9 0 -12 17 q-3 16 -10 20 q-8 6 -6 7 q1 1 14 -2 ZM163 124 q24 -8 30 -18 q0 -1 -3 -2 q-4 -2 -4 -6 l0 -33 q0 -3 -12 -7 q-16 -6 -16 -11 l0 -25 q-1 -19 17 -17 l13 0 q28 -1 31 25 q3 13 4 15 q2 2 3 -7 q1 -17 14 -26 q9 -6 3 -16 q-10 -12 -50 -14 l-23 0 q-42 -1 -39 21 l0 47 q-1 14 9 10 q2 0 6 -1 q7 -1 12 0 l0 10 l-64 0 l0 -7 q2 -1 10 -2 q19 -2 18 -5 q0 -2 -3 -5 q-3 -3 -3 -7 q-4 -23 -15 -35 q-10 -11 -30 -20 q-15 -7 -38 -11 q-23 -3 -5 4 q63 18 60 71 q0 5 -11 5 q-8 0 -8 3 l0 61 q0 6 17 -3 q9 -5 11 -5 l54 0 q3 0 7 6 q3 5 5 5 ZM106 108 q-12 0 -12 -9 l0 -26 l63 0 l0 35 l-51 0 Z" /><glyph glyph-name="" unicode="&#x5165;" d="M88 200 q15 -3 45 -41 q7 -10 21 -37 q23 -48 41 -68 q20 -23 51 -35 q1 0 2 -1 q10 -2 -2 -5 q-13 -4 -28 -19 q-5 -6 -6 -6 q-18 8 -44 52 q-19 36 -28 76 q-33 -87 -117 -126 q-13 -7 -15 -6 q-1 2 10 11 q43 29 69 78 q24 45 28 86 q-15 16 -44 23 q-5 1 -5 2 q6 9 22 16 Z" /><glyph glyph-name="" unicode="&#x5173;" d="M168 206 q42 -11 27 -18 q-4 -2 -5 -3 q-12 -11 -36 -42 q-2 -3 -3 -4 l37 0 q2 0 8 11 q6 11 8 11 q4 1 21 -13 q3 -3 5 -4 q6 -5 5 -7 q-1 -2 -9 -2 l-72 0 q-8 1 -9 -9 q-4 -34 -6 -44 l61 0 q1 0 6 9 q7 14 10 14 q8 -2 26 -19 q5 -5 4 -6 q0 -2 -5 -2 l-96 0 q10 -56 95 -78 q7 0 -1 -5 q-11 -6 -17 -12 q-2 -2 -4 -5 q-3 -12 -17 -2 q-55 30 -59 102 l-4 0 q-14 -55 -43 -76 q-44 -28 -72 -30 q79 33 84 106 l-84 0 q-6 0 -9 2 q-2 2 4 2 l89 0 q3 30 3 53 l-71 0 q-6 0 -8 2 q-1 2 4 2 l106 0 q10 20 16 58 q1 12 11 9 ZM73 198 q17 4 42 -14 q9 -15 -1 -29 q-13 -13 -24 -1 q-3 4 -3 15 q-1 21 -14 29 Z" /><glyph glyph-name="" unicode="&#x5176;" d="M158 203 q29 0 28 -5 q1 -2 -2 -4 q-2 -3 -2 -5 l0 -23 l9 0 q1 0 6 8 q7 11 10 11 q8 -1 24 -16 q4 -4 3 -6 q-1 -2 -7 -2 l-45 0 l0 -115 l18 0 q1 0 6 8 q8 14 12 14 q7 -1 23 -16 q7 -7 5 -9 q0 -2 -10 -2 l-221 0 q-4 1 -5 3 q0 2 3 2 l55 0 l0 114 l-45 0 q-3 0 -4 3 q-1 2 2 2 l47 0 l0 30 q-1 8 9 7 q24 -2 25 -7 q0 -1 -2 -4 q-3 -4 -3 -7 l0 -19 l54 0 l0 32 q-2 7 7 6 ZM97 161 l0 -34 l54 0 l0 34 l-54 0 ZM151 122 l-54 0 l0 -36 l54 0 l0 36 ZM97 82 l0 -36 l54 0 l0 36 l-54 0 ZM89 31 q29 -11 29 -20 q0 -1 -4 -1 q-8 -1 -11 -4 q-1 0 -3 -2 q-36 -18 -66 -26 q-13 -4 -16 -3 q-2 1 9 7 q33 18 50 44 q4 10 12 5 ZM143 26 q45 -3 64 -17 q25 -21 1 -38 q-11 -3 -22 13 q-18 26 -44 38 q-1 0 -2 1 q-17 5 3 3 Z" /><glyph glyph-name="" unicode="&#x517b;" d="M117 56 q1 -73 -76 -83 q-5 -1 -7 0 q-3 2 1 3 q32 12 43 30 q11 17 10 58 q-22 -18 -61 -27 q-7 -1 -8 0 q0 2 7 5 q43 22 59 57 l-59 0 q-3 0 -4 2 q-2 2 1 2 l64 0 q6 12 11 25 l-46 0 q-4 0 -6 2 q-1 3 3 3 l50 0 q5 18 6 23 l-56 0 q-12 1 -6 4 l99 0 q7 26 8 36 q0 9 2 9 q1 1 12 -2 q28 -8 16 -13 q-3 -1 -4 -2 q-12 -12 -23 -28 l24 0 q2 0 11 10 q8 8 9 8 q10 -1 29 -16 q5 -3 5 -5 q1 -1 -3 -1 l-89 0 q-3 -10 -7 -23 l36 0 q3 0 9 9 q6 7 7 7 q7 1 29 -15 q4 -3 3 -4 q-1 -2 -7 -2 l-79 0 q-2 -7 -11 -25 l69 0 q2 0 12 11 q8 9 9 9 q10 -3 25 -16 q7 -4 7 -6 q1 -2 -4 -2 l-71 0 q29 -33 79 -45 q6 -2 -7 -9 q-9 -5 -13 -8 q-1 -1 -3 -4 q-3 -6 -12 -2 q-16 8 -31 24 l0 -71 q0 -9 -13 -11 q-19 -4 -17 9 l0 86 q-1 11 18 3 q-10 17 -12 28 l-38 0 q-11 -20 -15 -23 q26 -5 19 -13 q-4 -4 -4 -7 ZM86 204 q17 1 28 -8 q12 -10 6 -24 q-7 -14 -20 -7 q-3 2 -6 13 q-3 16 -11 21 q-1 0 -2 1 q-9 4 5 4 Z" /><glyph glyph-name="" unicode="&#x5185;" d="M125 206 q35 -3 25 -11 q-3 -3 -3 -5 q-1 -10 -3 -39 l42 0 q3 0 7 7 q4 6 6 6 q27 -8 35 -21 q0 -3 -5 -7 q-5 -3 -5 -5 l0 -129 q2 -28 -36 -27 q-5 0 -8 7 q-4 14 -21 18 q-8 1 0 2 q2 0 5 0 q32 -2 29 10 l0 135 l-49 0 q-1 -5 -2 -14 q-1 -9 -3 -27 q32 -16 42 -29 q10 -12 6 -24 q-3 -10 -13 -13 q-9 -1 -14 3 q-4 3 -5 8 q0 -1 0 1 q1 38 -17 47 q-2 -4 -5 -11 q-5 -17 -19 -30 q-13 -14 -39 -27 q-9 -5 -9 -6 l0 -32 q0 -9 -10 -11 q-17 -5 -20 3 l0 168 q0 15 24 3 q9 -5 11 -5 l42 0 q0 21 0 44 q-1 14 12 11 ZM76 147 q-10 0 -10 -9 l0 -108 q28 21 37 45 q10 23 10 72 l-37 0 Z" /><glyph glyph-name="" unicode="&#x519b;" d="M209 204 q31 -14 36 -33 q-2 -4 -13 -3 q-22 2 -34 -11 q10 -6 19 -15 q7 -7 0 -9 l-108 0 l-28 -51 l33 0 l0 34 q-2 8 14 5 q1 0 4 -1 q22 -3 21 -7 q0 -2 -3 -5 q-4 -3 -4 -6 l0 -20 l16 0 q2 0 9 10 q11 15 16 12 q9 -5 23 -19 q3 -3 1 -5 q-1 -2 -6 -2 l-59 0 l0 -37 l51 0 q3 0 11 13 q6 11 8 11 q7 -2 22 -16 q12 -11 7 -12 l-99 0 l0 -52 q-1 -9 -21 -10 q-12 -1 -11 8 l0 54 l-97 0 q-4 0 -5 2 q-1 2 2 2 l100 0 l0 37 l-30 0 q-1 0 -6 -5 q-4 -5 -6 -6 q-21 7 -28 16 q0 2 3 3 q6 5 11 13 q1 3 4 8 q10 17 14 26 l-39 0 q-4 0 -5 2 q-1 3 2 3 l44 0 q11 20 16 34 q1 6 3 6 q25 -2 37 -12 q0 -3 -4 -4 q-5 -2 -8 -7 q-2 -3 -4 -7 q-5 -7 -7 -11 l61 0 q2 0 8 10 q10 17 15 13 q7 28 2 25 l-143 0 q11 -36 -16 -44 q-18 1 -21 15 q0 5 8 12 q16 13 15 29 q0 1 0 2 q-3 5 4 0 q2 -1 5 -6 q3 -3 4 -4 l141 0 q4 0 8 8 q4 7 7 7 Z" /><glyph glyph-name="" unicode="&#x519c;" d="M118 203 q43 -6 32 -15 q-2 -2 -3 -3 q-3 -7 -7 -23 q-2 -6 -3 -9 l51 0 q1 0 4 5 q6 10 9 10 q36 -15 36 -29 q-2 -2 -11 -2 q-23 1 -34 -18 q41 -15 27 -21 q-12 -1 -50 -30 q27 -35 74 -52 q7 -2 1 -4 q-1 0 -1 0 q-17 -6 -28 -20 q-5 -6 -8 -4 q-69 46 -75 151 q-8 -25 -21 -46 q8 -4 3 -10 q-2 -4 -2 -6 l0 -62 q17 4 37 11 q4 1 4 0 q1 0 -3 -3 q-22 -18 -42 -38 q-11 -11 -14 -11 q-5 0 -13 12 q-8 14 -5 17 q1 1 3 2 q4 3 4 8 l0 46 q-23 -21 -58 -39 q-10 -6 -11 -5 q0 0 8 8 q41 36 61 69 q0 8 5 7 q10 25 16 49 l-37 0 q5 -18 -8 -32 q-11 -9 -24 -2 q-13 11 -3 20 q2 2 8 6 q17 9 16 24 q0 4 0 4 q1 0 3 -3 q1 -2 3 -4 q2 -3 4 -8 l38 0 q2 14 4 35 q1 5 1 7 q-1 10 9 8 ZM137 148 q9 -47 28 -74 q12 25 15 37 q4 13 7 9 q2 4 5 19 q0 6 1 9 l-56 0 Z" /><glyph glyph-name="" unicode="&#x51a0;" d="M206 204 q17 -5 35 -27 q0 -5 -12 -5 q-22 0 -30 -11 q15 -2 8 -8 q-3 -3 -3 -4 l0 -26 q2 0 7 7 q6 7 8 7 q5 0 17 -13 q4 -3 3 -4 q0 -2 -5 -2 l-30 0 l0 -78 q0 -14 -15 -22 q-21 -9 -24 2 q1 10 -15 18 q-8 3 2 3 q25 -2 24 13 l0 64 l-40 0 q-15 2 -7 4 l47 0 l0 34 q-3 9 17 6 q9 24 7 24 l-147 0 q11 -34 -14 -45 l47 0 q1 0 6 8 q6 10 8 10 q7 -2 21 -15 q4 -4 4 -6 q-1 -2 -6 -2 l-74 0 q-8 0 -9 4 q-22 5 -18 24 q2 4 9 10 q16 13 14 27 q-1 5 8 -8 q1 -1 2 -2 l143 0 q2 0 6 7 q5 6 6 6 ZM108 118 q2 2 16 -10 q3 -3 4 -4 q4 -5 4 -7 q-1 -2 -5 -2 l-15 0 l0 -66 q-5 -29 24 -25 l53 0 q21 0 34 42 q2 11 2 -1 q0 -26 12 -37 q4 -4 4 -8 q-6 -19 -49 -20 l-67 0 q-41 -2 -38 31 l0 84 l-14 0 q0 -2 0 -5 q-4 -62 -14 -74 q-25 -32 -45 -34 q21 18 26 38 q7 22 6 75 l-21 0 q-5 0 -6 2 q-1 3 3 3 l71 0 q0 0 5 6 q8 11 10 12 ZM136 104 q22 0 32 -22 q1 -14 -13 -20 q-12 -3 -13 12 q0 2 0 5 q1 18 -6 25 Z" /><glyph glyph-name="" unicode="&#x51b5;" d="M190 200 q25 -7 32 -22 q0 -2 -4 -4 q-3 -2 -3 -5 l0 -68 q0 -10 -24 -10 q1 -2 -2 -4 q-3 -1 -3 -3 l0 -68 q-3 -13 16 -11 q18 -2 24 26 q5 14 6 14 q1 1 0 -12 q-1 -22 13 -31 q4 -2 4 -4 q-5 -18 -39 -19 l-17 0 q-39 -5 -35 30 l0 84 q-7 12 28 5 l0 10 l-62 0 l0 -10 q30 -5 23 -13 q-4 -5 -4 -9 q0 -24 -8 -45 q-13 -31 -70 -53 q-19 -5 -6 3 q36 21 46 42 q11 21 9 67 q-18 -6 -19 5 l0 92 q0 8 3 9 q3 2 12 -3 q14 -7 18 -7 l47 0 q1 0 6 6 q6 7 9 8 ZM138 181 q-17 3 -14 -13 l0 -56 l62 0 l0 69 l-48 0 ZM32 187 q1 0 3 0 q22 -3 29 -11 q10 -14 2 -28 q-9 -12 -24 -5 q-4 2 -4 12 q1 17 -9 25 q0 0 -1 1 q-12 7 4 6 ZM86 160 q-15 -53 -21 -73 q-7 -29 -4 -47 q0 -2 2 -7 q6 -20 2 -28 q-6 -11 -22 -11 q-13 2 -15 15 q0 3 2 12 q6 21 4 33 q-1 7 -13 14 q-1 1 -1 1 q-7 2 -7 4 q0 1 7 1 q17 -1 23 9 q11 18 38 78 q5 13 7 14 q2 -1 -2 -15 Z" /><glyph glyph-name="" unicode="&#x51fa;" d="M111 197 q-1 10 11 9 q1 0 3 0 q24 -2 23 -5 q0 -2 -3 -4 q-3 -4 -4 -8 l0 -84 l45 0 l0 63 q-1 13 12 12 q21 -1 25 -6 q0 -1 -2 -4 q-4 -5 -4 -9 l0 -64 q1 -14 -23 -13 q-9 0 -8 7 l0 10 l-44 0 l0 -101 l48 0 l0 66 q-2 11 11 10 q1 0 2 0 q24 -3 23 -6 q0 -2 -2 -4 q-2 -4 -2 -6 l0 -78 q0 -11 -25 -10 q-8 -1 -7 7 l0 16 l-124 0 q-3 0 -7 -8 q-4 -6 -6 -7 q-15 4 -27 14 q0 3 3 6 q4 2 4 7 l0 63 q0 1 0 2 q-2 8 8 6 q1 0 4 0 q22 -3 22 -6 q0 -2 -3 -4 q-2 -2 -3 -3 l0 -65 l50 0 l0 101 l-35 0 q-3 0 -7 -8 q-4 -6 -6 -6 q-6 0 -25 12 q-4 3 0 7 q4 3 4 6 l0 58 q-1 10 10 9 q1 0 3 0 q19 -2 20 -6 q1 -2 -2 -5 q-4 -3 -4 -7 l0 -56 l42 0 l0 92 Z" /><glyph glyph-name="" unicode="&#x522b;" d="M213 204 q27 -2 27 -7 q0 -2 -4 -6 q-3 -4 -3 -5 l0 -177 q5 -31 -34 -33 q-10 -1 -11 7 q-3 13 -18 17 q-9 3 -9 4 q0 2 9 1 q39 -4 33 17 l0 171 q-1 13 10 11 ZM107 202 q14 -2 30 -16 q0 -2 -3 -5 q-4 -2 -4 -5 l0 -48 q2 -7 -20 -9 q-10 -1 -9 8 l0 5 l-39 0 l0 -9 q33 -6 32 -9 q0 -2 -3 -5 q-4 -3 -5 -7 q-1 -4 -1 -15 l16 0 q1 0 4 4 q3 5 6 7 q19 -4 30 -18 q0 -2 -4 -5 q-3 -2 -3 -3 q-1 -16 -3 -45 q-1 -14 -2 -21 q0 -20 -34 -24 q-7 -1 -7 5 q-1 13 -16 18 q-4 2 -4 3 q0 1 6 1 q32 -5 29 18 q3 31 3 55 l-21 0 q-4 -65 -66 -98 q-5 -3 -6 -2 q0 1 3 4 q35 37 42 96 l-35 0 q-9 2 -6 5 l41 0 q0 20 0 32 q-4 -2 -12 -2 q-13 -3 -11 9 l0 64 q0 8 2 9 q2 1 9 -2 q4 -1 12 -5 q7 -3 9 -3 l29 0 q2 0 5 6 q3 6 6 7 ZM75 184 q-15 1 -13 -10 l0 -38 l39 0 l0 48 l-26 0 ZM165 182 q1 0 3 0 q22 -3 19 -7 q0 -2 -3 -5 q-3 -3 -3 -6 l0 -113 q2 -13 -19 -14 q-10 -1 -9 11 l0 126 q-2 11 12 8 Z" /><glyph glyph-name="" unicode="&#x524d;" d="M149 207 q24 -2 39 -12 q0 -2 -5 -4 q-17 -10 -33 -32 l46 0 q1 1 2 3 q12 21 17 20 q8 -1 25 -20 q4 -5 3 -6 q-1 -2 -10 -2 l-219 0 q-3 0 -4 3 q-2 2 1 2 l76 0 q-5 4 -6 15 q0 15 -10 24 q-6 5 -5 6 q1 2 8 1 q32 -3 38 -21 q5 -15 -10 -25 l37 0 q5 18 8 38 q1 9 2 10 ZM99 141 q17 -4 28 -17 q0 -3 -5 -8 q-2 -3 -2 -4 l0 -119 q-9 -23 -35 -17 q-2 1 -4 6 q-3 9 -11 13 q-5 2 -4 4 q0 1 6 1 q25 -3 21 13 l0 34 l-31 0 l0 -59 q2 -10 -14 -13 q-12 -3 -12 8 l0 142 q0 9 2 10 q3 2 11 -1 q10 -3 17 -7 l22 0 q1 0 3 4 q4 9 8 10 ZM193 139 q30 -2 21 -12 q-1 -1 -1 -1 l0 -133 q0 -12 -14 -19 q-16 -7 -27 -2 q-3 2 -4 7 q-2 12 -17 16 q-6 2 -5 3 q1 1 8 1 q34 0 29 13 l0 117 q-1 12 10 10 ZM137 113 q-2 14 12 11 q29 -2 18 -12 q-2 -2 -2 -3 l0 -86 q3 -7 -18 -10 q-10 -3 -10 8 l0 92 ZM75 123 q-15 2 -13 -12 l0 -22 l31 0 l0 34 l-18 0 ZM62 84 l0 -32 l31 0 l0 32 l-31 0 Z" /><glyph glyph-name="" unicode="&#x52a0;" d="M54 201 q1 8 16 6 q2 -1 3 -1 q20 -5 15 -18 q-2 -4 -2 -6 l-2 -35 l13 0 q2 0 4 7 q2 6 4 7 q24 -7 35 -20 q0 -1 -3 -4 q-5 -3 -5 -6 q-1 -26 -2 -74 q-1 -28 -1 -37 q-3 -32 -37 -35 q-5 0 -8 9 q-4 11 -11 14 q-9 3 -8 5 q1 2 12 2 q22 0 22 12 q2 71 2 115 l-17 0 q-2 -78 -15 -102 q-35 -56 -48 -52 q36 43 34 154 l-30 0 q-6 0 -8 2 q-2 2 4 2 l34 0 l-1 55 ZM173 140 l0 -133 l32 0 l0 152 l-23 0 q-11 3 -9 -19 ZM146 165 q0 5 8 5 q14 -4 20 -7 l30 0 q1 0 4 4 q4 6 6 6 q20 -8 24 -17 q0 -2 -3 -4 q-2 -2 -2 -3 l0 -148 q0 -12 -16 -12 q-11 0 -11 7 l0 7 l-32 0 l0 -7 q0 -8 -17 -9 q-12 -2 -11 9 l0 169 Z" /><glyph glyph-name="" unicode="&#x52a1;" d="M96 205 q30 -3 33 -9 q0 -2 -2 -3 q-5 -2 -7 -6 q-3 -5 -4 -7 q-1 0 -2 -3 l47 0 q1 0 5 5 q7 9 10 9 q25 -8 37 -23 q0 -2 -5 -3 q-7 -1 -9 -4 q-15 -18 -37 -38 q22 -13 79 -17 q5 -1 7 -1 q6 0 -1 -5 q-3 -2 -5 -4 q-7 -6 -11 -15 q-2 -10 -13 -7 q-50 11 -78 32 l-21 -10 q35 -4 26 -12 q-4 -3 -4 -5 q-2 -6 -2 -16 l33 0 q1 1 3 5 q3 7 7 8 q14 -1 31 -18 q1 -3 -4 -6 q-3 -2 -3 -3 q-4 -49 -12 -62 q-16 -21 -42 -14 q-1 1 -2 5 q-1 11 -20 19 q-11 3 6 3 q18 0 24 1 q16 0 14 58 l-36 0 q-7 -38 -30 -59 q-39 -28 -75 -26 q74 24 73 84 l-49 0 q-4 0 -4 3 q0 2 4 2 l50 0 l0 29 q-33 -12 -59 -17 q-38 -6 -23 1 q55 17 97 49 q-11 14 -19 36 q-43 -47 -63 -45 q33 33 47 80 q2 11 9 9 ZM111 173 q-2 -2 -5 -7 q15 -18 33 -28 q17 16 25 35 l-53 0 Z" /><glyph glyph-name="" unicode="&#x52a8;" d="M151 196 q-3 13 10 10 q36 -2 26 -11 q-5 -5 -5 -7 q0 -10 -1 -26 q0 -18 -1 -26 l13 0 q2 0 6 6 q5 8 9 10 q20 -2 32 -23 q0 -2 -6 -7 q-5 -3 -5 -4 q0 -99 -8 -118 q-5 -11 -19 -16 q-18 -7 -27 -2 q-2 1 -1 5 q0 10 -13 16 q-7 4 4 4 q19 0 25 4 q10 5 10 120 l-20 0 q-1 -61 -12 -87 q-11 -28 -42 -47 q-16 -11 -34 -17 q-28 -9 -19 -2 q50 22 63 51 q17 30 16 102 l-18 0 q-12 3 -6 5 l23 0 q1 12 0 60 ZM98 191 q7 0 24 -17 q4 -4 3 -6 q-1 -2 -7 -2 l-84 0 q-5 0 -7 3 q-2 2 3 2 l53 0 q1 0 6 8 q7 11 9 12 ZM109 139 q5 1 23 -17 q1 -1 1 -1 q4 -3 4 -6 q-1 -2 -6 -2 l-49 0 q21 -9 12 -14 q-4 -2 -5 -3 q-6 -8 -9 -12 q49 -15 50 -48 q-6 -25 -29 -13 q-1 2 -1 7 q-1 4 -1 6 q-27 -8 -53 -22 q-11 -6 -14 -5 q-2 1 -6 18 q-2 5 -2 6 q-3 9 7 10 q6 0 8 3 q16 36 20 67 l-34 0 q-5 0 -8 3 q-2 2 3 2 l73 0 q1 0 6 8 q7 12 10 13 ZM79 81 q-17 -25 -27 -39 q11 1 46 2 q-3 25 -19 37 Z" /><glyph glyph-name="" unicode="&#x5355;" d="M147 206 q30 -3 41 -13 q0 -2 -5 -5 q-17 -12 -37 -36 l20 0 q1 0 6 6 q7 11 10 10 q8 -2 28 -19 q3 -3 -2 -8 q-5 -3 -5 -6 l0 -70 q-3 -5 -19 -8 q-12 -2 -12 4 l0 7 l-37 0 l0 -32 l61 0 q2 0 7 9 q8 14 11 12 q14 -7 26 -20 q2 -4 -2 -5 l-103 0 l0 -50 q-1 -5 -15 -8 q-12 -1 -13 4 l0 54 l-93 0 q-2 0 -4 3 q-1 2 2 1 l95 0 l0 32 l-36 0 l0 -10 q-2 -5 -16 -8 q-11 -1 -11 4 l0 106 q-1 7 18 -2 q12 -6 16 -6 l56 0 q5 19 9 39 q2 15 4 15 ZM72 201 q27 -3 37 -18 q7 -19 -14 -25 q-11 0 -14 16 q-3 18 -14 24 q-4 2 -3 2 q1 1 8 1 ZM148 148 q-13 0 -13 -9 l0 -27 l37 0 l0 36 l-24 0 ZM81 148 q-10 0 -10 -9 l0 -27 l36 0 l0 36 l-26 0 ZM71 108 l0 -35 l36 0 l0 35 l-36 0 ZM135 108 l0 -35 l37 0 l0 35 l-37 0 Z" /><glyph glyph-name="" unicode="&#x5386;" d="M209 206 q8 2 31 -21 q3 -3 2 -4 q-1 -1 -8 -1 l-151 0 q-11 2 -10 -10 q0 -4 -1 -11 q-1 -31 -1 -48 l48 0 q2 28 0 49 q-1 12 8 10 q40 -1 29 -13 q-3 -3 -3 -4 q0 0 0 -6 q-2 -30 -2 -36 l29 0 q2 0 6 6 q5 8 8 9 q20 -2 34 -20 q1 -4 -5 -9 q-5 -3 -5 -5 q-2 -50 -6 -83 q-2 -14 -16 -23 q-18 -10 -31 -5 q-1 1 -1 5 q-1 14 -22 20 q-8 3 8 3 q18 0 23 2 q7 3 9 20 q3 12 5 75 l-37 0 q-6 -82 -61 -110 q-37 -21 -43 -15 q71 29 73 126 l-48 0 q-2 -59 -26 -94 q-28 -36 -33 -29 q21 25 27 68 q6 42 4 137 q-1 6 1 8 q2 1 8 -2 q20 -11 26 -11 l117 0 q1 0 4 7 q7 14 10 15 Z" /><glyph glyph-name="" unicode="&#x539f;" d="M242 192 q3 -4 2 -5 q-1 -2 -7 -2 l-83 0 q24 -3 22 -8 q-1 -3 -4 -4 q-4 -2 -7 -5 q-8 -9 -20 -23 l35 0 q1 0 5 6 q5 8 8 9 q22 -2 34 -19 q0 -3 -5 -7 q-3 -2 -3 -4 l0 -49 q1 -14 -14 -16 q-19 -5 -17 8 l0 4 l-12 0 q-8 1 -7 -13 l0 -60 q0 -12 -9 -21 q-14 -9 -32 -5 q-2 0 -3 5 q-3 16 -19 18 q-13 4 8 4 q17 0 19 2 q4 6 4 9 l0 61 l-20 0 l0 -8 q2 -7 -17 -8 q-13 -3 -11 10 l0 72 q0 15 8 11 q6 -3 17 -7 q4 -1 6 -2 l13 0 q4 22 2 40 l-51 0 q-14 1 -13 -11 q0 -65 -3 -94 q-3 -28 -12 -50 q-27 -53 -39 -46 q16 24 20 65 q5 43 3 146 q0 5 2 6 q2 1 8 -1 q3 -1 11 -4 q15 -6 18 -6 l118 0 q0 0 3 5 q10 15 13 15 q6 1 28 -17 q1 -1 1 -1 ZM188 141 l-63 0 q-9 1 -8 -10 l0 -19 l71 0 l0 29 ZM188 108 l-71 0 l0 -27 l71 0 l0 27 ZM104 55 q26 -6 27 -13 q0 -3 -7 -5 q-4 -2 -5 -3 q-55 -49 -67 -42 q27 21 40 55 q2 12 12 8 ZM181 46 q7 10 52 -14 q17 -19 8 -32 q-18 -19 -31 0 q-1 2 -2 8 q0 23 -27 38 Z" /><glyph glyph-name="" unicode="&#x53c2;" d="M114 206 q30 -5 31 -13 q-1 -1 -4 -2 q-8 -2 -15 -7 q-6 -4 -26 -16 q-16 -9 -14 -9 q49 -1 88 1 q-4 10 -18 19 q0 0 -1 1 q-11 6 3 5 q37 -3 48 -18 q10 -13 3 -26 q-8 -12 -21 -6 q-4 2 -6 8 q-1 5 -4 8 q-30 -3 -49 -8 q17 -1 16 -8 q0 -1 -3 -2 q-9 -6 -15 -16 l75 0 q1 0 5 7 q7 14 11 14 q10 -3 24 -16 q4 -4 4 -6 q-1 -3 -6 -3 l-81 0 q26 -32 79 -42 q10 -2 10 -3 q0 -1 -3 -3 q-5 -3 -9 -7 q-5 -5 -9 -13 q-3 -6 -6 -7 q-50 17 -69 75 l-28 0 q-38 -50 -91 -74 q-12 -6 -15 -6 q-3 1 6 7 q43 29 67 72 l-68 0 q-3 0 -4 2 q-1 2 2 2 l72 0 q7 14 8 21 q-8 1 -29 -5 q-4 -1 -5 -1 q-8 -3 -10 5 q-1 3 -5 14 q-1 3 -1 4 q-2 8 7 8 q11 -1 18 6 q16 18 22 31 q0 1 1 2 q2 8 15 5 ZM132 101 q23 -15 20 -21 q0 -1 -3 -2 q-6 -2 -11 -5 q-45 -31 -78 -42 q-1 0 -4 -1 q-15 -6 2 4 q41 27 62 62 q5 11 12 5 ZM157 69 q20 -14 19 -19 q0 -1 -4 -2 q-5 -1 -10 -4 q-4 -2 -13 -7 q-41 -24 -93 -36 q-9 -1 -11 -1 q0 1 9 4 q50 21 89 61 q7 8 13 5 q1 -1 1 -1 ZM189 43 q23 -17 21 -25 q0 0 -5 -1 q-7 -2 -11 -4 q-26 -11 -69 -25 q-30 -11 -78 -15 q-1 0 -4 0 q-21 -1 2 4 q19 3 69 23 q34 17 62 41 q7 8 13 2 Z" /><glyph glyph-name="" unicode="&#x53ca;" d="M167 206 q32 -9 37 -22 q-1 -2 -6 -3 q-7 -1 -9 -5 q-7 -16 -20 -53 l11 0 q2 0 5 5 q3 6 5 7 q25 -4 36 -20 q0 -2 -5 -5 q-7 -4 -9 -10 q-11 -26 -37 -63 q25 -16 68 -26 q8 -2 -5 -8 q-12 -5 -17 -10 q-2 -3 -6 -8 q-4 -8 -8 -6 q-29 11 -55 38 q-23 -14 -58 -25 q-18 -7 -44 -10 q-29 -4 -10 2 q70 20 97 51 q-18 29 -29 86 q-8 -50 -29 -83 q-23 -33 -60 -53 q-11 -5 -5 1 q60 47 65 148 q1 43 0 51 l-47 0 q-4 0 -6 2 q-1 3 3 3 l124 0 q2 0 7 8 q6 8 7 8 ZM116 185 q-2 -13 -4 -32 q10 -64 43 -99 q18 28 27 65 l-13 0 q-3 -1 -6 -7 q-3 -5 -5 -5 q-15 3 -24 15 q0 2 4 7 q7 7 9 13 q6 15 13 43 l-44 0 Z" /><glyph glyph-name="" unicode="&#x53f7;" d="M217 121 q9 -2 29 -20 q3 -3 2 -4 q-2 -2 -6 -2 l-110 0 q-10 1 -13 -7 l-15 -25 l57 0 q4 0 9 7 q5 7 8 7 q20 -6 31 -20 q0 -2 -4 -5 q-5 -4 -6 -8 q-7 -36 -21 -54 q-5 -6 -20 -11 q-17 -4 -25 -2 q-3 2 -5 9 q-3 12 -11 14 q-11 3 -10 4 q1 1 15 0 q30 -2 36 17 q7 17 10 37 l-64 0 q-2 0 -5 -5 q-2 -6 -5 -7 q-19 2 -29 15 q1 3 6 6 q5 3 6 5 q0 1 2 6 q4 11 6 17 l-65 0 q-3 0 -3 2 q0 2 2 2 l181 0 q3 0 9 12 q6 10 8 10 ZM174 201 q25 -8 32 -19 q0 -3 -4 -6 q-5 -4 -5 -8 l0 -43 q2 -12 -18 -13 q-13 -2 -11 7 l0 13 l-77 0 l0 -10 q0 -8 -18 -10 q-12 -4 -10 6 l0 71 q0 5 1 7 q2 1 6 -1 q9 -3 19 -8 q5 -2 6 -2 l66 0 q2 0 6 7 q5 8 7 9 ZM99 181 q-9 1 -8 -8 l0 -36 l77 0 l0 44 l-69 0 Z" /><glyph glyph-name="" unicode="&#x540d;" d="M102 204 q2 0 7 -1 q29 -4 27 -10 q0 -3 -5 -7 q-7 -5 -12 -14 l58 0 q2 0 6 7 q4 7 6 8 q30 -8 41 -27 q-2 -2 -7 -5 q-7 -3 -10 -7 q-40 -52 -87 -82 l57 0 q2 1 5 8 q3 7 5 8 q22 -3 37 -20 q0 -3 -5 -7 q-3 -2 -4 -3 l1 -68 q-2 -9 -21 -11 q-1 0 -2 0 q-9 -1 -8 6 l0 14 l-83 0 l0 -12 q0 -7 -18 -9 q-1 0 -4 0 q-8 -1 -7 4 l0 68 q-52 -18 -56 -14 q0 1 13 7 q30 14 43 24 q0 3 1 7 q0 5 1 5 q3 2 16 -2 q10 6 22 18 q-18 2 -20 24 q-1 17 -11 21 q-64 -56 -54 -36 q42 42 56 99 q2 8 11 7 q-1 0 1 0 ZM116 168 q-11 -15 -23 -30 q46 -5 39 -37 q24 20 48 67 l-64 0 ZM122 61 q-4 -1 -14 -8 l0 -56 l83 0 l0 64 l-69 0 Z" /><glyph glyph-name="" unicode="&#x540e;" d="M189 207 q18 -11 26 -33 q-1 -1 -11 -1 q-8 1 -13 1 q-14 -1 -45 -2 q-40 -2 -53 -3 q-17 -1 -16 -11 l0 -33 l119 0 q4 0 9 11 q4 9 6 9 q8 0 31 -17 q2 -3 1 -5 q-1 -2 -5 -2 l-161 0 l0 -10 q0 -46 -11 -75 q-21 -44 -47 -50 q17 20 22 45 q6 24 6 74 l0 72 q-1 13 17 4 q12 -6 20 -8 q64 13 97 31 q6 3 8 3 ZM119 62 l0 -53 l60 0 l0 63 l-48 0 q-12 0 -12 -10 ZM97 91 q6 -3 18 -9 q9 -5 10 -5 l48 0 q0 0 2 3 q7 9 10 9 q28 -8 35 -19 q-1 -3 -5 -6 q-4 -4 -4 -6 l0 -66 q1 -13 -20 -12 q-13 -1 -12 8 l0 16 l-60 0 l0 -13 q1 -13 -22 -12 q-9 -1 -8 8 l0 96 q0 11 8 8 Z" /><glyph glyph-name="" unicode="&#x5411;" d="M106 206 q39 -7 22 -16 q-6 -3 -7 -5 q-4 -4 -9 -11 q-10 -12 -16 -19 l92 0 q2 0 5 7 q6 11 11 13 q22 -7 34 -23 q0 -2 -5 -7 q-5 -4 -5 -7 l0 -136 q-3 -27 -38 -27 q-3 0 -5 7 q-4 14 -19 18 q-8 1 -8 3 q1 2 11 1 q30 -2 27 9 l0 138 l-119 0 q-13 1 -12 -17 l0 -137 q1 -15 -12 -16 q-17 -2 -16 9 l0 165 q1 13 10 9 q13 -6 22 -9 l11 0 q6 9 9 40 q0 11 2 12 q3 2 15 -1 ZM87 108 q-1 18 8 12 q5 -2 14 -6 q6 -4 8 -4 l26 0 q1 0 2 4 q4 7 7 7 q22 -5 28 -18 q0 -2 -3 -5 q-4 -4 -4 -6 l0 -47 q2 -10 -17 -12 q-13 -4 -11 12 l0 11 l-30 0 l0 -18 q2 -10 -15 -11 q-14 -4 -13 12 l0 69 ZM124 106 q-10 1 -9 -10 l0 -36 l30 0 l0 46 l-21 0 Z" /><glyph glyph-name="" unicode="&#x5458;" d="M175 208 q23 -4 33 -18 q1 -2 -4 -4 q-3 -2 -3 -3 l0 -35 q1 -9 -17 -13 q-17 -2 -15 4 l0 5 l-80 0 l0 -4 q3 -11 -21 -11 q-9 0 -8 8 l0 63 q0 7 10 4 q8 -2 19 -8 q4 -1 5 -2 l70 0 q1 0 4 6 q4 7 7 8 ZM106 190 q-19 1 -17 -9 l0 -33 l81 0 l0 42 l-64 0 ZM56 123 q9 -4 20 -6 l102 0 q2 0 4 4 q2 7 6 8 q26 -4 35 -20 q0 -2 -4 -6 q-4 -5 -4 -7 l0 -55 q0 -13 -18 -16 q-9 -2 -11 -1 q-2 2 -2 9 l0 80 l-103 0 q-7 0 -7 -11 l0 -68 q1 -10 -16 -13 q-11 -3 -11 6 l0 89 q0 6 2 8 q3 1 7 -1 ZM220 1 q14 -20 -5 -30 q-12 -6 -23 12 q-20 28 -57 40 q-17 -29 -65 -44 q-17 -5 -37 -7 q-19 -1 -4 4 q53 17 69 38 q19 23 17 71 q-1 14 7 13 q30 -2 33 -7 q1 -3 -4 -6 q-5 -5 -5 -8 q-2 -33 -9 -50 q71 -9 83 -26 Z" /><glyph glyph-name="" unicode="&#x5546;" d="M124 60 q-8 0 -8 -7 l0 -31 l26 0 l0 38 l-18 0 ZM121 188 q-1 6 -7 13 q-3 4 -3 6 q3 2 18 1 q12 -2 16 -5 q15 -15 -3 -30 l60 0 q2 0 7 8 q7 13 11 13 q4 0 20 -13 q2 -2 3 -3 q6 -5 5 -7 q-2 -2 -11 -2 l-74 0 q32 -11 28 -16 q0 -2 -6 -5 q-18 -8 -33 -25 l33 0 q3 0 9 8 q6 7 8 7 q21 -8 28 -22 q0 -2 -6 -6 q-4 -4 -4 -5 l0 -96 q5 -38 -31 -39 q-9 -1 -10 7 q-1 13 -15 18 q-9 2 -9 4 q1 1 13 1 q27 -4 23 15 l0 103 l-117 0 q-7 -1 -8 -9 l0 -51 q18 18 29 43 q3 14 12 8 q1 0 3 -2 q23 -10 21 -15 q0 -1 -4 -2 q-8 -2 -12 -5 q-10 -5 -49 -32 l0 -61 q1 -13 -15 -14 q-11 -1 -11 8 l0 146 q0 10 27 -5 q6 -4 7 -4 l22 0 q-7 3 -7 15 q-1 20 -15 30 l-43 0 q-3 0 -6 3 q-1 2 3 2 l99 0 q-6 2 -6 15 ZM184 82 q-3 -12 -16 -16 q7 -5 7 -9 q0 -1 -3 -3 q-4 -3 -4 -5 l0 -35 q0 0 0 -1 q2 -8 -16 -9 q-10 -1 -10 6 l0 8 l-26 0 l0 -7 q2 -8 -19 -10 q-8 -1 -7 6 l0 57 q0 10 21 3 q6 -2 7 -2 l18 0 q1 0 4 3 q10 11 16 5 q-2 3 -4 9 q-1 7 -3 10 q-4 6 -14 12 q-4 2 -4 3 q18 5 43 -7 q12 -8 10 -18 ZM110 123 l33 0 q1 4 2 13 q4 23 6 32 l-63 0 q32 -8 32 -27 q-1 -12 -10 -18 Z" /><glyph glyph-name="" unicode="&#x56de;" d="M200 203 q18 -2 34 -21 q0 -2 -6 -7 q-4 -5 -4 -6 l0 -161 q3 -13 -18 -15 q-13 -4 -12 7 l0 15 l-138 0 l0 -15 q0 -8 -19 -10 q-9 -3 -9 8 l0 194 q0 6 2 7 q3 1 10 -2 q2 -1 6 -3 q13 -6 20 -6 l121 0 q1 0 5 6 q5 8 8 9 ZM56 171 l0 -151 l138 0 l0 164 l-127 0 q-13 1 -11 -13 ZM148 154 q17 -2 30 -20 q0 -3 -4 -6 q-3 -2 -3 -3 l0 -60 q3 -9 -17 -12 q-12 -3 -11 8 l0 8 l-38 0 l0 -7 q3 -10 -16 -12 q-11 -3 -11 7 l0 87 q0 6 2 6 q2 1 9 -2 q2 -1 7 -3 q12 -4 12 -4 l29 0 q1 0 4 4 q4 8 7 9 ZM143 137 l-27 0 q-12 1 -11 -10 l0 -53 l38 0 l0 63 Z" /><glyph glyph-name="" unicode="&#x56e0;" d="M208 205 q26 -12 39 -30 q-1 -4 -10 -10 q-5 -3 -5 -4 l0 -171 q3 -16 -20 -16 q-15 -3 -14 8 l0 14 l-139 0 l0 -14 q2 -8 -21 -10 q-12 -4 -10 12 l0 192 q0 18 3 20 q3 4 17 -1 q6 -2 13 -5 q6 -2 8 -3 l123 0 q1 0 6 7 q8 10 10 11 ZM75 182 q-18 3 -16 -20 l0 -39 l52 0 q0 25 0 44 q-2 8 11 7 q25 -1 27 -4 q0 -2 -2 -5 q-3 -5 -3 -9 q-1 -15 -3 -33 l18 0 q12 23 17 23 q4 0 16 -12 q5 -4 7 -6 l0 54 l-124 0 ZM59 118 l0 -97 q50 27 52 97 l-52 0 ZM141 119 q0 -2 -1 -11 q-2 -17 -3 -21 q34 -13 48 -28 q10 -14 4 -29 q-8 -14 -22 -9 q-7 3 -10 19 q-5 27 -21 42 q-14 -48 -77 -66 l0 -16 l139 0 l0 119 l-57 0 Z" /><glyph glyph-name="" unicode="&#x56fd;" d="M202 206 q13 0 34 -18 q5 -5 -2 -11 q-3 -2 -3 -3 l0 -184 q2 -11 -18 -12 q-17 -4 -16 5 l0 17 l-143 0 l0 -12 q4 -9 -20 -11 q-13 -5 -12 7 l0 210 q0 8 4 9 q3 1 15 -5 q3 -1 10 -4 q8 -4 10 -4 l129 0 q2 0 6 7 q4 8 6 9 ZM69 185 q-16 1 -15 -13 l0 -129 l53 0 l0 56 l-30 0 q-6 0 -8 2 q-2 2 3 2 l35 0 l0 45 l-35 0 q-6 0 -9 2 q-2 3 4 3 l83 0 q2 0 8 9 q6 8 8 8 q9 -3 21 -16 q5 -4 3 -5 q-1 -1 -10 -1 l-44 0 l0 -44 l9 0 q3 0 9 9 q4 8 6 8 q5 0 22 -14 q4 -4 3 -6 q0 -2 -6 -2 l-43 0 l0 -7 q56 -4 42 -35 q14 -6 19 -10 l0 138 l-128 0 ZM136 86 l0 -43 l24 0 q2 1 4 9 q-10 2 -14 16 q-4 14 -14 18 ZM54 39 l0 -35 l143 0 l0 35 l-143 0 Z" /><glyph glyph-name="" unicode="&#x5728;" d="M107 211 q1 0 7 -2 q28 -6 28 -11 q1 -3 -4 -5 q-5 -2 -6 -5 q-8 -20 -11 -27 l79 0 q1 0 6 8 q8 14 12 14 q11 -1 27 -21 q3 -3 2 -5 q-1 -1 -6 -1 l-122 0 q-4 -6 -10 -19 q-15 -26 -22 -36 l0 -23 l55 0 l0 48 q-1 11 9 10 q37 0 26 -11 q-3 -3 -3 -4 l0 -43 l21 0 q1 0 6 7 q7 14 11 13 q8 -2 20 -16 q5 -5 4 -7 q-1 -2 -8 -2 l-54 0 l0 -75 l30 0 q1 0 7 7 q8 10 11 11 q8 1 25 -16 q4 -4 2 -5 q-1 -2 -7 -2 l-155 0 l0 -16 q2 -10 -18 -10 q-11 -1 -10 7 l0 93 q-44 -39 -50 -34 q33 33 50 69 l0 13 q-2 11 12 8 q0 0 1 2 q6 12 12 31 l-71 0 q-2 0 -3 2 q-1 2 1 3 l74 0 q4 8 11 41 q3 12 11 9 ZM87 73 l0 -75 l55 0 l0 75 l-55 0 Z" /><glyph glyph-name="" unicode="&#x5730;" d="M150 199 q0 6 14 4 q0 0 2 0 q15 -3 15 -6 q0 -2 -3 -5 q-3 -3 -3 -6 l0 -55 l12 4 q4 2 6 11 q1 6 3 7 q25 -3 34 -15 q0 -3 -4 -6 q-3 -3 -3 -5 l0 -55 q1 -27 -28 -32 q-7 -1 -8 8 q-2 11 -12 11 l0 -25 q-1 -7 -16 -10 q-9 -1 -9 3 l0 89 l-20 -7 l0 -85 q-2 -23 25 -22 l35 0 q28 -2 36 34 q1 4 2 4 q1 -1 1 -6 q0 -21 9 -24 q18 -10 2 -22 q-8 -6 -37 -8 l-47 0 q-53 -2 -51 31 l0 33 q-35 -19 -65 -45 q-9 -8 -11 -8 q-13 12 -16 30 q0 1 7 3 q12 2 22 6 l0 86 l-29 0 q-3 0 -4 2 q-1 2 2 2 l31 0 l0 76 q0 5 12 3 q16 -3 18 -7 q0 -2 -1 -4 q-3 -4 -3 -10 l0 -57 q4 0 9 8 q5 10 11 6 q4 -3 12 -9 q4 -3 5 -4 l0 47 q-1 6 9 4 q21 -2 20 -6 q0 -1 -2 -3 q-2 -3 -2 -5 l0 -45 l20 7 l0 78 ZM195 133 l-20 -7 l0 -60 q22 -5 20 8 l0 59 ZM68 116 l0 -81 q20 7 37 13 l0 52 l-20 -8 q-4 -2 -8 -1 q-2 2 2 4 l26 10 l0 11 l-37 0 Z" /><glyph glyph-name="" unicode="&#x5740;" d="M187 184 l0 -90 l7 0 q1 0 6 6 q9 10 11 10 q6 -1 18 -15 q4 -4 3 -5 q0 -1 -5 -1 l-40 0 l0 -98 l12 0 q0 0 4 5 q10 11 13 12 q6 -1 23 -14 q5 -5 3 -7 q0 -1 -9 -1 l-171 0 q-3 0 -4 2 q-1 3 2 3 l48 0 l0 132 q-1 11 7 10 q27 -2 29 -8 q0 -1 -2 -3 q-5 -4 -4 -8 l0 -123 l19 0 l0 102 l0 98 q0 10 10 9 q2 0 3 0 q28 -3 19 -13 q-2 -2 -2 -3 ZM51 194 q29 -2 23 -12 q-2 -3 -2 -5 l0 -54 l3 0 q1 0 5 5 q8 10 11 10 q4 0 13 -13 q2 -3 1 -4 q-2 -2 -6 -2 l-27 0 l0 -66 q15 4 27 6 q6 1 6 -1 q0 -2 -6 -6 q-38 -25 -66 -46 q-10 -7 -12 -6 q-6 5 -11 30 q-1 6 10 8 q13 3 24 7 l0 74 l-24 0 q-4 0 -6 2 q-2 2 2 2 l28 0 l0 60 q-1 12 7 11 Z" /><glyph glyph-name="" unicode="&#x57f9;" d="M150 201 q31 -1 35 -20 q4 -12 -10 -21 l27 0 q1 0 4 7 q6 10 9 12 q6 2 24 -16 q5 -4 4 -5 q-1 -2 -7 -2 l-48 0 q33 -12 34 -20 q0 -1 -5 -5 q-21 -15 -38 -41 l29 0 q2 0 9 11 q6 9 7 9 q8 -2 25 -18 q4 -4 3 -5 q0 -2 -5 -2 l-153 0 q-4 0 -5 2 q-2 3 1 3 l79 0 q12 33 15 66 l-79 0 q-4 0 -5 2 q-2 2 1 2 l57 0 q-6 3 -5 17 q0 14 -5 19 q-4 4 -3 4 q-1 1 5 1 ZM51 200 q32 -3 18 -15 q-1 -1 -1 -1 l0 -61 l6 0 q7 15 11 17 q4 2 17 -12 q3 -3 4 -4 q2 -3 1 -5 q0 -1 -4 -1 l-35 0 l0 -69 q6 1 19 3 q16 2 22 3 l0 5 q0 14 23 1 q7 -4 8 -4 l43 0 q8 12 12 15 q14 0 32 -20 q0 -1 -5 -5 q-5 -3 -5 -5 l0 -59 q2 -9 -21 -11 q-9 -2 -8 7 l0 16 l-53 0 l0 -16 q2 -5 -17 -7 q-9 -2 -9 6 l0 72 q-35 -14 -71 -36 q-14 -8 -16 -7 q-11 11 -15 34 q3 2 16 3 q11 0 18 1 l0 73 l-25 0 q-4 0 -5 2 q-1 2 2 2 l28 0 l0 71 q-1 9 10 7 ZM123 146 q27 -4 34 -20 q6 -15 -6 -24 q-17 -8 -22 7 q-1 3 -1 10 q1 14 -7 22 q-4 4 -3 5 q0 1 5 0 ZM146 53 q-11 1 -11 -11 l0 -43 l53 0 l0 54 l-42 0 Z" /><glyph glyph-name="" unicode="&#x57fa;" d="M66 201 q-1 9 8 7 q32 -1 25 -11 q-4 -4 -4 -7 l0 -14 l58 0 l0 23 q-1 11 8 10 q37 -3 25 -12 q-2 -2 -2 -3 l0 -18 l12 0 q1 0 4 6 q6 11 9 11 q6 1 25 -16 q3 -2 2 -4 q-1 -2 -6 -2 l-46 0 l0 -86 l15 0 q1 0 6 8 q7 10 10 11 q9 -2 24 -18 q4 -4 3 -5 q-1 -1 -7 -1 l-70 0 q18 -28 72 -32 q8 -1 2 -5 q-3 -2 -4 -3 q-6 -6 -10 -14 q-4 -10 -13 -7 q-10 2 -24 12 l-50 0 l0 -35 l48 0 q2 0 8 6 q7 10 11 10 q3 0 14 -9 q3 -3 4 -3 q5 -5 4 -6 q-1 -2 -7 -2 l-187 0 q-11 2 -6 4 l80 0 l0 35 l-36 0 q-5 0 -7 2 q-2 2 3 2 l40 0 l0 28 q-2 9 11 8 q30 -2 22 -11 q-2 -3 -2 -4 l0 -21 l13 0 q1 0 3 4 q6 7 9 8 q2 0 10 -4 q-15 21 -20 37 l-45 0 q-49 -53 -98 -62 q48 34 57 62 l-47 0 q-14 1 -7 4 l53 0 l0 88 l-41 0 q-5 0 -6 2 q-2 2 2 2 l45 0 l0 25 ZM95 171 l0 -25 l58 0 l0 25 l-58 0 ZM95 141 l0 -25 l58 0 l0 25 l-58 0 ZM95 111 l0 -27 l58 0 l0 27 l-58 0 Z" /><glyph glyph-name="" unicode="&#x5883;" d="M138 213 q23 -1 31 -8 q9 -10 1 -24 l26 0 q1 0 5 6 q8 15 14 10 q9 -6 17 -14 q2 -3 2 -4 q-1 -2 -4 -2 l-42 0 q0 0 4 -2 q19 -10 19 -12 q0 -3 -6 -5 q-7 -2 -10 -5 q-7 -6 -21 -22 l30 0 q3 0 7 9 q7 13 12 10 q8 -5 20 -16 q3 -3 3 -5 q0 -2 -3 -2 l-135 0 q-6 1 -6 1 l-37 0 l0 -71 q15 4 35 9 l0 48 q0 7 17 0 q6 -3 8 -3 l53 0 q3 0 7 6 q4 6 6 6 q25 -7 30 -17 q0 -2 -3 -5 q-3 -2 -3 -3 l0 -39 q2 -12 -20 -11 q0 -4 -4 -7 q-3 -3 -3 -5 l0 -19 q-1 -13 14 -12 l8 0 q12 -3 19 28 q1 6 2 7 q1 0 2 -6 q1 -19 10 -27 q4 -4 4 -7 q-1 -17 -40 -19 l-10 0 q-37 0 -36 23 l0 41 q0 11 17 7 q5 -1 8 -2 l0 8 l-60 0 l0 -3 q6 -2 17 -4 q2 0 3 0 q12 -2 12 -6 q0 -3 -3 -5 q-3 -3 -4 -6 q-6 -39 -67 -54 q-16 -5 -21 -4 q-4 0 8 5 q29 13 42 27 q11 14 13 41 q-26 -6 -26 2 l0 9 q-48 -24 -69 -43 q-4 -3 -5 -3 q-8 4 -14 30 q1 1 14 4 q7 2 12 3 l0 77 l-22 0 q-3 0 -4 3 q-1 2 2 2 l24 0 l0 59 q0 2 0 5 q-1 8 1 8 q23 1 32 -6 q0 -2 -2 -5 q-4 -5 -4 -10 l0 -51 l5 0 q2 0 6 7 q5 11 10 7 q14 -10 20 -16 l21 0 q-5 6 -4 17 q1 11 -6 18 q-7 7 1 5 q3 -1 4 -1 q42 -13 21 -39 l19 0 q11 33 12 46 l-82 0 q-3 0 -5 2 q-2 2 1 2 l56 0 q-3 4 -3 12 q0 10 -7 15 q-5 3 -4 4 q1 1 8 1 ZM126 98 l0 -12 l60 0 l0 21 l-49 0 q-11 0 -11 -9 ZM186 82 l-60 0 l0 -19 l60 0 l0 19 Z" /><glyph glyph-name="" unicode="&#x5904;" d="M160 206 q23 -3 26 -6 q0 -2 -2 -4 q-4 -6 -4 -11 l0 -45 q51 -15 58 -29 q7 -15 -1 -27 q-10 -12 -21 -3 q-3 3 -5 12 q-7 26 -31 42 l0 -107 q3 -7 -16 -9 q-14 -4 -12 8 l0 171 q-1 10 8 8 ZM52 193 q0 14 11 9 q29 -7 31 -12 q0 -2 -3 -5 q-7 -5 -9 -12 q-2 -5 -7 -18 q-3 -9 -5 -14 l21 0 q3 0 7 7 q5 6 7 6 q22 -5 32 -19 q0 -3 -4 -5 q-4 -3 -5 -6 q-8 -44 -30 -83 q36 -41 142 -29 q4 0 0 -4 q-12 -9 -14 -19 q-1 -12 -17 -10 q-93 -1 -126 44 q-29 -23 -65 -40 q-7 -4 -7 -3 q0 2 8 7 q35 23 53 53 q-12 28 -20 64 q-43 -59 -35 -41 q29 54 35 130 ZM68 136 q-1 -3 -5 -9 q-4 -9 -6 -13 q8 -34 24 -55 q14 35 16 77 l-29 0 Z" /><glyph glyph-name="" unicode="&#x590d;" d="M73 213 q5 3 30 -5 q17 -4 7 -9 q-4 -2 -5 -3 q-3 -3 -9 -11 q4 5 -2 -2 l91 0 q3 0 9 12 q6 11 8 11 q6 1 27 -20 q3 -3 3 -6 q0 -2 -3 -2 l-138 0 q-2 -2 -6 -7 q-4 -5 -6 -8 q3 -2 8 -5 q5 -3 7 -3 l72 0 q2 0 6 7 q5 7 6 7 q19 -4 30 -19 q0 -3 -5 -9 q-3 -3 -3 -4 l0 -49 q-3 -6 -24 -8 q-8 1 -8 6 l0 6 l-77 0 l0 -5 q30 -9 29 -12 q1 -2 -3 -5 q-4 -3 -5 -5 l43 0 q3 0 6 5 q2 4 4 4 q26 -5 36 -21 q-1 -2 -5 -3 q-7 -2 -12 -7 q-9 -8 -6 -5 q-12 -11 -17 -15 q35 -13 81 -13 q3 0 -4 -6 q-11 -9 -15 -16 q-2 -2 -2 -6 q0 -6 -6 -4 q-38 8 -78 31 q-21 -12 -57 -21 q-65 -14 -36 -2 q55 15 79 36 q-10 11 -19 35 q-52 -54 -74 -55 q36 35 53 74 q-21 -7 -20 9 l0 60 q-20 -16 -35 -24 q-11 -6 1 7 q16 19 26 37 q6 12 12 34 q4 13 6 14 ZM101 151 q-10 0 -10 -8 l0 -17 l77 0 l0 25 l-67 0 ZM91 121 l0 -25 l77 0 l0 25 l-77 0 ZM110 60 q9 -17 27 -26 q12 10 20 26 l-47 0 Z" /><glyph glyph-name="" unicode="&#x5916;" d="M57 201 q28 2 41 -13 q0 -2 -3 -4 q-5 -4 -8 -10 q-3 -5 -7 -14 q-5 -9 -8 -14 l20 0 q1 0 4 5 q7 8 9 8 q27 -8 33 -20 q0 -1 -3 -3 q-5 -2 -6 -5 q-16 -58 -43 -91 q-31 -35 -73 -45 q-1 1 6 5 q38 27 55 60 q-25 -7 -22 19 q-1 23 -8 29 q-19 -21 -31 -26 q-1 1 5 10 q22 35 30 65 q5 19 7 36 q0 7 2 8 ZM69 141 q-3 -6 -17 -23 q-3 -4 -4 -6 q35 -12 35 -31 q12 32 14 60 l-28 0 ZM146 204 q-2 8 27 2 q17 -4 7 -14 q-2 -2 -2 -2 l0 -53 q42 -12 56 -27 q26 -37 -9 -46 q-12 0 -15 17 q-4 33 -32 50 l0 -146 q2 -10 -22 -13 q-12 -4 -10 9 l0 223 Z" /><glyph glyph-name="" unicode="&#x59d3;" d="M171 198 q25 -1 28 -7 q0 -3 -3 -6 q-4 -4 -4 -7 l0 -48 l10 0 q1 0 7 8 q6 10 8 10 q5 1 19 -11 q1 -2 2 -2 q6 -5 5 -7 q-1 -3 -10 -3 l-41 0 l0 -61 l9 0 q0 0 4 6 q8 14 10 14 q7 -1 20 -15 q6 -6 4 -7 q-2 -2 -12 -2 l-35 0 l0 -69 l14 0 q13 19 18 20 q5 -1 21 -15 q6 -5 5 -7 q-1 -2 -12 -2 l-134 0 q-4 0 -6 2 q-1 2 3 2 l61 0 l0 68 l-35 0 q-3 0 -4 3 q-2 2 1 2 l38 0 l0 61 l-18 0 q-26 -48 -39 -55 q-1 0 2 5 q11 26 15 55 q1 11 2 28 q0 14 2 17 q23 2 35 -12 q0 -1 -3 -4 q-3 -3 -4 -6 q-6 -19 -9 -23 l17 0 l0 59 q-1 9 9 9 ZM46 188 q-4 14 19 7 q20 -4 13 -12 q-5 -4 -5 -7 q0 -3 -3 -20 q-3 -13 -4 -21 l12 0 q0 0 2 2 q4 6 7 7 q19 -6 26 -17 q0 -2 -4 -6 q-4 -4 -4 -6 q-3 -50 -15 -77 q20 -9 22 -17 q8 -19 -11 -22 q-10 -1 -16 8 q-4 7 -9 12 q-30 -33 -57 -41 q-1 1 5 6 q26 22 39 48 q-13 11 -30 14 q-5 2 -5 3 q0 3 3 22 q5 33 8 60 l-18 0 q-8 2 -4 4 l23 0 q3 18 6 53 ZM80 131 l-14 0 q-2 -9 -6 -28 q-9 -48 -9 -48 q0 -2 9 -5 q6 -2 9 -4 q9 29 11 85 Z" /><glyph glyph-name="" unicode="&#x59fb;" d="M74 141 l-13 0 q-7 -39 -14 -73 q-3 -14 -2 -14 q1 -2 9 -2 q3 -1 5 -1 q11 33 15 90 ZM79 41 q14 -7 20 -21 q6 -24 -16 -24 q-7 2 -11 12 q-3 10 -7 16 q-15 -19 -45 -36 q-5 -3 -5 -2 q0 1 4 5 q21 21 35 46 q-14 9 -28 14 q-4 1 -4 2 q0 2 1 8 q6 28 12 80 l-20 0 q-7 2 -4 4 l25 0 q3 25 3 48 q0 12 2 12 q21 1 35 -7 q0 -3 -3 -6 q-3 -4 -4 -8 q0 -2 -1 -7 q-4 -18 -6 -32 l7 0 q1 0 4 4 q3 6 6 7 q21 -5 29 -17 q0 -2 -4 -5 q-4 -5 -5 -8 q-5 -50 -20 -85 ZM205 198 q19 -4 34 -19 q0 -2 -5 -6 q-4 -4 -4 -5 l0 -174 q2 -15 -12 -16 q-18 -3 -16 6 l0 18 l-68 0 l0 -15 q4 -7 -16 -9 q-10 -4 -9 10 l0 192 q-1 20 8 13 q6 -3 15 -6 q3 -1 5 -2 l57 0 q1 0 4 5 q5 7 7 8 ZM134 164 l0 -41 l20 0 q0 23 -1 41 q-1 8 7 7 q20 -2 23 -5 q0 -1 -1 -4 q-3 -6 -3 -10 q0 -2 0 -5 q-2 -11 -2 -24 l3 0 q5 13 8 13 q3 0 13 -8 q1 -1 1 -1 l0 53 l-55 0 q-13 0 -13 -16 ZM134 119 l0 -56 l0 -32 q19 30 20 88 l-20 0 ZM174 91 q16 -13 28 -27 l0 55 l-26 0 q0 -10 -2 -28 ZM181 37 q-2 3 -1 12 q3 20 -7 34 q-12 -38 -39 -61 l0 -15 l68 0 l0 30 q-15 -8 -21 0 Z" /><glyph glyph-name="" unicode="&#x5a5a;" d="M203 201 q8 6 14 -1 q29 -29 9 -23 q-4 1 -7 1 q-16 0 -29 -3 q0 -11 4 -32 l12 0 q1 0 6 7 q8 11 11 12 q6 0 21 -16 q3 -4 2 -6 q0 -2 -5 -2 l-47 0 q10 -36 32 -36 q7 1 16 19 q2 5 3 2 q0 -2 -2 -9 q-5 -17 3 -30 q4 -7 2 -11 q-8 -10 -37 1 q-17 7 -34 30 q-26 -14 -45 -29 q3 -2 8 -4 q11 -7 15 -7 l33 0 q2 0 4 4 q3 5 7 6 q22 -6 31 -18 q0 -2 -4 -6 q-3 -4 -3 -5 l0 -57 q3 -10 -16 -14 q-12 -3 -13 7 l0 14 l-42 0 l0 -13 q1 -8 -13 -10 q-14 -4 -13 8 l0 88 q-5 -2 -15 21 q-3 7 2 9 q4 2 4 7 l0 75 q0 5 2 6 q1 1 8 -1 q9 -2 16 -5 q-1 1 1 0 q19 4 54 19 q4 1 5 2 ZM164 174 q-2 0 -13 0 q-9 1 -10 -8 l0 -23 l26 0 q-1 4 -2 19 q-1 8 -1 12 ZM168 138 l-27 0 l0 -33 q14 2 33 6 q-5 14 -6 27 ZM77 136 l-14 0 q-3 -18 -7 -47 q-2 -20 -4 -31 q4 -1 7 -2 q3 -2 5 -2 q11 41 13 82 ZM194 60 l-32 0 q-10 0 -10 -9 l0 -20 l42 0 l0 29 ZM152 27 l0 -28 l42 0 l0 28 l-42 0 ZM106 119 q-12 -50 -23 -74 q20 -11 28 -23 q8 -14 -2 -24 q-13 -11 -22 1 q-1 1 -3 5 q-6 15 -13 21 q-32 -37 -52 -37 q26 24 39 51 q-10 9 -31 17 q2 11 5 38 q3 24 5 42 l-16 0 q-4 0 -6 3 q-2 2 2 2 l20 0 q1 9 1 6 q4 39 4 45 q-1 13 8 11 q34 -5 25 -13 q-4 -2 -4 -4 q0 0 -1 -8 q-6 -27 -7 -37 l13 0 q1 0 3 4 q2 5 4 6 q23 -2 31 -16 q1 -2 -3 -6 q-4 -6 -5 -10 Z" /><glyph glyph-name="" unicode="&#x5b58;" d="M99 208 q2 -1 6 -2 q27 -5 25 -8 q0 -1 -2 -3 q-4 -3 -5 -6 q-1 -1 -2 -4 q-3 -5 -8 -17 l82 0 q1 2 4 6 q9 16 13 15 q7 0 30 -20 q2 -2 1 -4 q-1 -2 -5 -2 l-127 0 q-19 -35 -26 -46 q3 -3 2 -5 q0 -1 -3 -3 q-4 -4 -4 -6 l0 -117 q2 -5 -18 -9 q-11 -3 -10 8 l0 92 q-15 -15 -39 -31 q-3 -2 -4 -1 q-1 1 2 4 q26 27 41 56 l0 12 q0 12 4 9 q3 0 6 -1 q8 15 16 38 l-56 0 q-5 0 -8 3 q-2 2 2 2 l63 0 q2 8 6 25 q1 5 1 7 q0 12 13 8 ZM193 141 q24 -12 32 -27 q-1 -2 -7 -3 q-21 -1 -43 -17 q11 -2 11 -5 q0 -1 -2 -2 q-3 -3 -3 -6 l0 -13 l23 0 q11 20 17 20 q6 0 23 -19 q2 -3 1 -4 q0 -1 -5 -1 l-59 0 l0 -69 q-5 -23 -39 -21 q-5 1 -6 7 q-1 11 -14 16 q-11 3 -10 3 q0 1 11 1 q31 -2 27 19 l0 44 l-56 0 q-3 0 -6 2 q-1 2 2 2 l60 0 l0 21 q-1 8 6 7 q10 -1 14 -1 q8 15 14 30 l-65 0 q-15 2 -9 5 l69 0 q2 0 7 6 q5 5 7 5 Z" /><glyph glyph-name="" unicode="&#x5b66;" d="M195 88 q-1 -1 -5 -1 q-20 2 -43 -14 q6 -6 -1 -9 q-2 0 -2 -1 l0 -5 l53 0 q1 0 5 7 q7 13 9 13 q8 0 30 -18 q1 -1 1 -1 q3 -3 2 -4 q-1 -2 -5 -2 l-95 0 l0 -53 q0 -24 -39 -24 q-2 0 -5 7 q-5 15 -17 17 q-5 1 -5 3 q0 1 6 1 q32 -3 29 14 l0 36 l-100 0 q-3 0 -5 2 q0 2 3 2 l102 0 l0 13 q-5 16 26 5 l14 25 l-90 0 q-4 0 -6 2 q-2 3 2 2 l91 0 q1 0 4 3 q6 8 12 9 q9 -2 23 -15 q9 -10 6 -14 ZM173 196 q2 13 22 3 q29 -13 12 -19 q-8 -3 -11 -6 q-23 -19 -34 -35 l36 0 q3 0 8 8 q4 8 7 8 q30 -8 37 -28 q0 -2 -10 -4 q-24 -4 -40 -16 q-4 -3 -4 -2 q-1 0 1 5 q0 2 2 5 q6 21 1 20 l-151 0 q4 -24 -14 -34 q-25 -4 -23 17 q1 5 9 11 q13 9 12 22 q1 13 14 -12 l103 0 q14 32 23 57 ZM106 203 q-1 10 29 -7 q28 -31 -3 -46 q-16 -2 -18 13 q-1 2 0 9 q0 18 -8 31 ZM53 191 q-8 11 27 -3 q20 -9 18 -25 q-2 -13 -16 -16 q-16 -2 -20 10 q-1 3 0 10 q3 13 -9 24 Z" /><glyph glyph-name="" unicode="&#x5ba1;" d="M139 206 q8 -7 7 -17 q0 -10 -8 -14 l56 0 q1 0 5 7 q6 11 10 11 q29 -11 38 -30 q-1 -2 -9 -2 q-4 0 -6 0 q-19 -2 -34 -17 q-8 -7 -5 2 q1 1 1 2 q5 11 6 22 l-151 0 q4 -21 -4 -30 q-25 -22 -33 4 q0 7 17 20 q5 5 7 20 q0 5 1 5 q1 1 8 -10 q2 -3 3 -4 l73 0 q-7 6 -7 15 q-1 9 -11 16 q-4 3 -4 4 q3 3 21 2 q12 -1 19 -6 ZM110 157 q-3 11 13 8 q28 -1 20 -9 q-1 -2 -1 -2 l0 -29 l37 0 q2 0 6 5 q6 7 9 7 q19 -5 33 -18 q0 -3 -5 -7 q-4 -2 -4 -4 l0 -77 q1 -6 -17 -8 q-13 -1 -13 5 l0 7 l-46 0 l0 -55 q2 -10 -23 -11 q-10 -2 -9 10 l0 56 l-44 0 l0 -9 q2 -7 -20 -8 q-9 -2 -9 6 l0 104 q0 8 21 0 q8 -3 10 -3 l42 0 l0 32 ZM110 120 l-35 0 q-10 1 -9 -8 l0 -27 l44 0 l0 35 ZM142 120 l0 -35 l46 0 l0 35 l-46 0 ZM66 80 l0 -40 l44 0 l0 40 l-44 0 ZM142 80 l0 -40 l46 0 l0 40 l-46 0 Z" /><glyph glyph-name="" unicode="&#x5bb6;" d="M151 195 q8 -10 -5 -23 l52 0 q2 0 6 7 q4 6 5 6 q30 -11 39 -29 q-2 -2 -15 -2 q-21 0 -30 -5 q10 -6 15 -12 q5 -4 0 -6 l-60 0 q-2 0 -6 -3 q-12 -9 -34 -23 q15 -10 23 -23 q23 12 41 33 q6 7 9 7 q27 -9 35 -25 q-1 -1 -10 -3 q-25 -3 -50 -13 q17 -50 81 -67 q4 -1 4 -2 q0 -2 -4 -3 q-13 -4 -23 -14 q-1 -1 -2 -4 q-2 -9 -10 -3 q-40 20 -53 90 q-6 -2 -12 -4 q11 -27 8 -55 q-7 -46 -46 -49 q-3 0 -5 6 q-6 14 -19 19 q-7 3 -7 5 q1 1 8 0 q36 -3 38 12 q5 13 3 28 q-14 -16 -47 -32 q-22 -8 -45 -14 q-30 -7 -16 0 q75 32 103 79 q-69 -45 -103 -40 q60 33 84 65 q-19 -10 -49 -18 q-44 -10 -28 -2 q62 28 81 53 l-44 0 q-4 0 -6 3 q-1 2 3 2 l115 0 q4 0 10 12 q3 5 4 5 q3 1 9 -2 q5 13 4 16 l-142 0 q2 -19 -6 -32 q-21 -15 -33 7 q0 8 10 16 q14 11 13 26 q1 12 15 -12 l60 0 q-2 2 -1 8 q0 15 -14 22 q-4 6 23 3 q19 -3 24 -10 Z" /><glyph glyph-name="" unicode="&#x5bdf;" d="M109 207 q25 0 37 -8 q10 -19 -10 -25 l59 0 q1 0 4 5 q7 9 11 8 q30 -16 32 -29 q-1 -3 -14 -3 q-5 -1 -8 -1 q-13 -2 -17 -6 q23 -16 20 -23 q-2 -3 -13 -3 q-6 0 -9 -1 q-14 -6 -23 -16 q23 -19 58 -26 q7 -2 7 -3 q0 -1 -3 -4 q-6 -3 -10 -7 q-4 -3 -9 -11 q-3 -4 -4 -5 q-7 -3 -44 29 l-78 0 q-15 -12 -33 -22 l101 0 q1 0 4 4 q5 7 8 7 q6 -1 17 -10 q3 -3 3 -4 q1 -2 -2 -2 l-41 0 q-7 0 -7 -14 l0 -38 q2 -20 -30 -23 q-8 0 -10 8 q-3 13 -16 16 q-13 2 -1 2 q12 0 17 0 q11 2 11 12 l0 37 l-47 0 q-10 0 -9 4 q-1 -1 -4 -2 q-11 -6 -25 -11 q-11 -4 -13 -4 q-2 1 6 6 q1 1 3 2 q22 12 30 21 q-4 5 -4 15 q0 1 1 3 q6 9 -2 17 q-5 -5 -18 -13 q-1 -1 -5 -3 q-15 -9 -3 3 q38 43 43 80 l-18 0 q5 -19 -3 -32 q-15 -18 -29 -3 q-5 12 9 22 q14 9 14 20 q0 4 1 5 q0 1 2 -1 q4 -2 4 -6 l73 0 q-7 3 -7 12 q-1 9 -5 13 q-1 1 -5 3 q-9 4 4 5 ZM85 169 q1 -4 12 -8 q7 -3 7 -4 q-1 -2 -4 -4 q-4 -2 -5 -4 q-1 -1 -4 -5 q-3 -3 -4 -4 l17 0 q1 0 4 4 q6 6 8 6 q6 -1 27 -15 q-1 6 -1 16 q-1 9 0 9 q1 1 4 -6 q1 -2 4 -8 q1 -3 2 -4 l29 0 q0 0 3 4 q4 8 5 8 q2 1 6 -1 q0 1 1 3 q4 9 4 13 l-115 0 ZM154 137 q5 -14 20 -27 q6 10 11 27 l-31 0 ZM84 135 q-4 -3 -6 -7 q11 -3 19 -12 q8 12 9 19 l-22 0 ZM144 132 q-1 -1 -3 -2 q-7 -2 -12 -10 q-12 -19 -30 -38 l39 0 q1 0 5 6 q4 7 6 7 q5 -1 11 -4 q-12 21 -16 41 ZM73 123 q-1 -1 -4 -4 q-5 -6 -13 -13 q2 -2 7 -4 q12 -6 14 -14 q6 6 7 8 q0 2 -3 4 q-4 2 -4 3 q0 2 0 7 q3 9 -4 13 ZM78 42 q24 -6 27 -12 q0 -1 -3 -2 q-5 -1 -8 -4 q0 0 -2 -2 q-30 -22 -53 -33 q-20 -10 -11 -1 q3 2 3 3 q25 21 36 43 q4 11 11 8 ZM163 36 q31 -4 46 -18 q12 -13 5 -26 q-9 -14 -24 -7 q-4 2 -6 13 q-6 21 -21 33 q-1 1 -4 3 q-8 5 4 2 Z" /><glyph glyph-name="" unicode="&#x5bf8;" d="M143 188 q-1 17 9 14 q31 -1 31 -8 q1 -3 -3 -7 q-4 -4 -4 -6 l0 -42 l16 0 q13 25 20 25 q7 -1 28 -21 q4 -4 3 -6 q-1 -2 -7 -2 l-60 0 l0 -135 q0 -13 -14 -22 q-19 -9 -32 -5 q-2 1 -3 7 q-4 14 -16 18 q-13 2 -12 3 q0 2 14 1 q36 -4 30 21 l0 112 l-127 0 q-5 0 -7 2 q-2 2 2 2 l132 0 l0 49 ZM65 104 q-7 8 -4 8 q1 1 17 -6 q28 -11 28 -33 q-5 -31 -32 -19 q-4 4 -2 16 q3 21 -7 34 Z" /><glyph glyph-name="" unicode="&#x5c81;" d="M131 206 q32 -3 17 -14 q-1 -1 -1 -1 l0 -53 l49 0 l0 38 q-2 13 12 10 q29 -2 22 -13 q-2 -3 -2 -5 l0 -43 q2 -8 -18 -10 q-13 -2 -14 5 l0 14 l-88 0 q47 -21 28 -24 q-5 -2 -7 -4 q-8 -8 -12 -14 l63 0 q1 1 2 3 q6 10 9 10 q8 -2 30 -18 q10 -8 1 -13 q-11 -6 -15 -12 q-45 -77 -175 -89 q-8 -1 -8 0 q0 1 8 3 q124 33 148 112 l-67 0 q-7 -7 -14 -14 q1 0 4 -1 q25 -6 33 -18 q8 -12 -3 -24 q-12 -11 -22 0 q-4 4 -4 15 q-1 18 -12 24 q-29 -31 -66 -45 q-7 -3 -8 -3 q0 1 6 6 q53 41 75 106 l-30 0 q-1 -1 -3 -4 q-6 -10 -9 -9 q-18 5 -24 14 q0 2 2 4 q3 2 3 6 l0 37 q0 5 14 4 q26 -2 16 -11 q-2 -3 -2 -4 l0 -33 l47 0 l0 60 q-3 11 15 8 Z" /><glyph glyph-name="" unicode="&#x5c97;" d="M193 133 q14 -2 32 -20 q2 -4 -4 -9 q-3 -3 -3 -4 l0 -103 q-3 -20 -35 -23 q-2 0 -4 6 q-6 15 -21 18 q-7 1 -7 2 q1 2 7 2 q33 -3 28 13 l0 102 l-41 0 q2 -1 7 -4 q22 -13 21 -17 q1 -2 -4 -5 q-5 -4 -7 -7 q-3 -4 -7 -10 q-5 -7 -8 -12 q15 -12 22 -25 q6 -14 -3 -24 q-10 -9 -21 -1 q-3 2 -6 11 q-4 12 -10 20 q-28 -25 -66 -39 l0 -23 q1 -6 -20 -8 q-11 -2 -10 6 l0 138 q-2 14 11 10 q12 -4 25 -6 l113 0 q2 0 6 6 q4 6 5 6 ZM71 117 q-9 2 -8 -13 l0 -94 q30 17 51 49 q-9 13 -37 31 q-10 12 47 -14 q13 30 15 41 l-68 0 ZM119 205 q30 -2 22 -10 q-3 -3 -3 -5 l0 -38 l43 0 l0 40 q-1 8 9 6 q28 -3 21 -13 q-3 -5 -3 -8 l0 -30 q0 -10 -17 -11 q-10 -1 -10 5 l0 7 l-109 0 q-1 0 -2 -5 q-2 -7 -4 -8 q-16 -1 -25 11 q0 3 1 7 q3 5 3 11 l0 25 q-1 13 7 11 q30 -1 21 -12 q-2 -2 -2 -3 l0 -33 l40 0 l0 44 q-1 12 8 9 Z" /><glyph glyph-name="" unicode="&#x5de5;" d="M194 198 q5 1 30 -21 q4 -4 3 -5 q-1 -2 -7 -2 l-66 0 q-9 2 -8 -12 l0 -147 l47 0 q2 0 9 12 q7 12 9 12 q6 0 28 -20 q5 -4 5 -6 q-1 -2 -7 -2 l-217 0 q-5 0 -7 2 q-1 2 4 2 l94 0 l0 159 l-74 0 q-4 0 -6 3 q-2 2 2 2 l141 0 q3 0 11 12 q7 11 9 11 Z" /><glyph glyph-name="" unicode="&#x5e74;" d="M76 202 q2 -1 8 -3 q24 -8 23 -12 q-1 -3 -5 -4 q-6 -2 -8 -5 q-7 -9 -10 -15 l101 0 q3 0 10 12 q4 9 6 9 q8 -1 21 -17 q3 -4 2 -6 q-1 -2 -6 -2 l-54 0 q-12 0 -12 -12 l0 -39 l20 0 q1 0 7 8 q7 12 10 12 q6 0 20 -16 q4 -5 3 -7 q-1 -2 -7 -2 l-53 0 l0 -54 l45 0 q2 0 7 10 q8 13 11 13 q7 -1 22 -18 q3 -4 3 -7 q-1 -3 -6 -3 l-82 0 l0 -66 q2 -9 -20 -12 q-11 -3 -10 9 l0 69 l-108 0 q-8 2 -5 5 l47 0 l0 63 q0 10 29 -1 q8 -3 9 -3 l28 0 l0 51 l-40 0 q-33 -46 -62 -62 q-7 -4 -9 -4 q-2 1 3 6 q36 48 46 90 q3 20 16 13 ZM122 103 l-25 0 q-13 1 -12 -10 l0 -44 l37 0 l0 54 Z" /><glyph glyph-name="" unicode="&#x5ead;" d="M6 -23 q-1 1 2 6 q15 23 20 56 q4 23 4 136 q0 10 3 12 q2 2 10 -3 q2 -2 7 -4 q6 -3 9 -6 l65 0 q-7 3 -9 16 q-1 11 -12 16 q-2 1 -2 2 q5 4 26 1 q16 -2 21 -8 q9 -19 -7 -27 l48 0 q0 0 4 6 q9 16 12 16 q8 1 27 -18 q5 -4 4 -6 q-2 -3 -8 -3 l-159 0 q-12 2 -10 -9 q0 -6 0 -13 l32 0 q1 0 3 4 q5 6 7 6 q11 -3 24 -17 l-2 -4 q-3 -1 -9 -9 q5 7 -1 -1 q-5 -6 -27 -44 l9 0 q1 0 5 5 q4 7 7 7 q14 -2 24 -15 q0 -2 -5 -7 q-4 -4 -5 -7 q-4 -32 -15 -52 q17 -11 84 -8 q13 0 37 5 q13 2 13 1 q0 -1 -3 -4 q-8 -7 -11 -15 q0 -1 0 -4 q1 -9 -10 -9 q-81 -7 -122 20 q-33 -20 -63 -24 q0 1 7 5 q26 15 41 30 q-20 31 -19 56 q1 0 3 -5 q10 -21 24 -36 q6 13 11 53 l-12 0 q0 0 -2 -2 q-3 -3 -4 -3 q-13 4 -21 17 q0 3 4 4 q5 3 7 6 q10 16 18 32 q4 7 6 11 l-35 0 q0 -5 0 -13 q-1 -49 -6 -72 q-13 -56 -49 -81 ZM199 158 q25 -10 28 -26 q-1 -1 -9 -1 q-16 1 -32 -1 l0 -39 l8 0 q11 18 14 18 q5 -2 18 -14 q6 -6 4 -7 q-1 -2 -11 -2 l-33 0 l0 -47 l14 0 q13 16 15 16 q6 -1 20 -12 q7 -6 6 -7 q0 -1 -10 -1 l-104 0 q-4 0 -5 2 q-1 2 3 2 l34 0 l0 48 l-20 0 q-4 0 -6 2 q-1 2 3 2 l23 0 l0 37 q-34 -3 -33 1 q0 2 11 4 q13 4 22 7 q13 5 27 13 q10 5 13 5 Z" /><glyph glyph-name="" unicode="&#x5f0f;" d="M131 197 q-2 7 10 6 q22 -1 28 -7 q1 -1 -1 -3 q-1 -2 -1 -3 q0 -1 6 -2 q33 -5 33 -24 q1 0 3 0 q2 1 3 0 q13 -8 20 -16 q4 -5 3 -7 q0 -1 -5 -1 l-67 0 q-2 -57 16 -100 q16 -30 35 -34 q5 1 14 22 q4 9 5 9 q2 -1 1 -10 q-1 -9 -1 -15 q0 -8 5 -20 q6 -13 3 -19 q-20 -15 -60 17 q-19 16 -33 44 q-17 -6 -77 -33 q-21 -8 -27 -11 q-1 0 -3 -1 q-9 -6 -12 2 q-1 2 -2 6 q-3 5 -5 11 q-3 7 -2 9 q0 2 8 3 q5 1 16 2 q13 2 22 4 l0 68 l-34 0 q-3 0 -4 3 q-2 2 1 2 l70 0 q12 18 15 18 q6 0 20 -18 q0 7 -1 28 q-1 9 -1 13 l-107 0 q-7 1 -4 4 l111 0 q1 13 -1 51 q0 2 0 2 ZM164 184 q-1 -6 -1 -40 l32 0 l4 8 q-19 -4 -22 12 q-2 17 -13 20 ZM135 94 l-28 0 q-12 0 -12 -11 l0 -54 l51 9 q-6 15 -11 56 Z" /><glyph glyph-name="" unicode="&#x5f53;" d="M124 208 q27 -3 25 -7 q0 -2 -2 -5 q-4 -4 -4 -10 l0 -82 l39 0 q2 0 5 7 q5 10 9 9 q27 -10 36 -20 q0 -2 -4 -5 q-5 -4 -5 -7 l0 -100 q-1 -9 -19 -10 q-14 -1 -12 4 l0 18 l-152 0 q-4 0 -6 0 q-2 2 2 2 l156 0 l0 47 l-140 0 q-5 0 -6 2 q-2 3 2 3 l144 0 l0 45 l-149 0 q-3 0 -5 2 q-1 3 2 3 l72 0 l0 96 q0 8 2 8 q1 2 10 0 ZM185 193 q28 -5 42 -21 q0 -2 -6 -4 q-8 -3 -13 -7 q-8 -7 -27 -28 q-10 -10 -13 -13 q-7 -7 -7 -5 q-2 1 2 11 q12 32 18 57 q2 10 4 10 ZM51 178 q28 -7 38 -22 q12 -31 -17 -35 q-12 0 -13 17 q-1 24 -15 37 q-6 6 3 4 q2 -1 4 -1 Z" /><glyph glyph-name="" unicode="&#x5fae;" d="M154 66 q0 -3 -5 -6 l0 -25 q34 12 20 2 q-19 -13 -34 -30 q-4 -4 -5 -4 q-5 0 -13 19 q-2 5 1 7 q3 2 4 5 l0 35 l-8 0 q-6 0 -5 -13 q1 -45 -34 -71 q-13 -8 -7 1 q21 29 16 88 q-1 5 2 7 q2 2 7 -1 q3 -2 14 -5 q4 -2 5 -2 l6 0 q1 0 3 3 q5 6 10 7 q19 -5 23 -17 ZM62 205 q33 -14 19 -19 q-3 -1 -4 -2 q-62 -52 -68 -44 q27 23 41 58 q3 14 12 7 ZM112 195 q-1 11 7 10 q24 -1 17 -8 q-2 -3 -2 -4 l0 -59 l9 0 l0 38 q-1 9 5 8 q23 0 19 -8 q-2 -2 -2 -4 l0 -34 q1 -8 -10 -12 q-12 -3 -12 3 l0 5 l-33 0 q-2 0 -8 -6 q-4 -5 -6 -5 q-2 -1 -12 7 q-5 5 -7 6 q-1 -1 -7 -9 q-9 -11 -12 -15 q10 -3 6 -10 q-2 -4 -2 -6 l0 -106 q3 -14 -15 -15 q-12 -3 -12 4 l0 105 q-31 -25 -25 -11 q26 41 41 81 q0 14 30 -2 l0 25 q-1 9 7 8 q21 0 17 -8 q-1 -3 -1 -4 l0 -35 l8 0 l0 61 ZM190 208 q38 -2 27 -15 q-4 -4 -4 -6 q-11 -34 -14 -41 l13 0 q1 0 4 6 q7 10 9 11 q6 2 20 -14 q5 -5 4 -6 q0 -1 -7 -1 l-23 0 q27 -7 17 -17 q-2 -2 -2 -3 q-11 -49 -28 -86 q19 -25 41 -34 q6 -2 2 -5 q-1 0 -1 0 q-11 -5 -15 -14 q0 0 -1 -1 q-5 -14 -12 -6 q-19 21 -28 36 q-45 -39 -79 -38 q48 25 69 62 q-5 14 -10 57 q-21 -30 -18 -16 q4 9 7 18 l-74 0 q-5 0 -7 2 q-2 3 2 3 l51 0 q1 0 5 7 q5 9 7 9 q6 0 19 -13 q11 22 17 95 q-2 12 9 10 ZM204 142 l-6 0 q-3 -9 -14 -26 q-4 -8 -6 -11 q3 -22 14 -43 q11 43 12 80 Z" /><glyph glyph-name="" unicode="&#x5fd7;" d="M124 208 q32 -4 24 -14 q-3 -4 -3 -5 l0 -33 l50 0 q2 0 9 12 q7 12 9 12 q11 -5 27 -21 q4 -4 3 -6 q0 -1 -5 -1 l-93 0 l0 -47 l31 0 q1 0 6 8 q9 14 11 14 q7 -1 27 -19 q3 -4 2 -5 q-1 -2 -6 -2 l-171 0 q-4 0 -5 2 q-1 2 3 2 l69 0 l0 47 l-85 0 q-4 0 -5 2 q-1 2 3 2 l87 0 l0 42 q-2 13 12 10 ZM115 89 q34 -4 41 -32 q0 -15 -13 -23 q-13 -5 -17 8 q-1 2 0 9 q3 22 -11 38 ZM87 75 q34 -5 22 -15 q-4 -3 -4 -5 l0 -34 q-6 -18 32 -16 q37 -4 40 38 q2 12 3 11 q1 0 2 -14 q2 -20 13 -31 q5 -5 4 -9 q-3 -15 -30 -21 q-17 -3 -49 -1 q-48 2 -43 26 l0 60 q-1 15 10 11 ZM48 63 q1 15 10 -14 q5 -21 2 -32 q-6 -17 -23 -21 q-18 -1 -18 15 q0 4 9 11 q21 17 20 41 ZM239 38 q9 -19 -4 -32 q-17 -11 -24 6 q0 2 0 8 q4 22 -16 45 q20 5 44 -27 Z" /><glyph glyph-name="" unicode="&#x6027;" d="M161 205 q26 -1 27 -7 q1 -3 -3 -7 q-3 -3 -3 -6 l0 -48 l20 0 q1 0 5 8 q7 13 9 13 q3 -1 13 -8 q6 -5 9 -7 q7 -7 6 -9 q-1 -2 -11 -2 l-51 0 l0 -61 l14 0 q0 0 4 6 q8 15 10 15 q7 -2 23 -17 q5 -5 3 -6 q-2 -2 -12 -2 l-42 0 l0 -72 l22 0 q2 2 5 6 q8 13 11 12 q3 0 16 -11 q3 -2 4 -2 q7 -6 6 -8 q-1 -2 -10 -2 l-158 0 q-4 0 -5 3 q-1 2 3 2 l75 0 l0 71 l-39 0 q-3 0 -4 3 q-2 2 1 2 l42 0 l0 61 l-22 0 q-18 -49 -48 -71 q-1 0 2 7 q12 24 18 50 q0 0 -1 0 q-6 -4 -11 -4 q-12 2 -10 16 q1 16 -9 21 l0 -161 q1 -9 -17 -14 q-10 -3 -10 8 l0 215 q-3 9 16 8 q20 -2 13 -11 q-2 -3 -2 -4 l0 -35 q26 -3 35 -18 q4 19 5 36 q0 7 1 9 q23 4 34 -9 q0 -1 -2 -4 q-4 -5 -6 -10 q-4 -15 -6 -24 l20 0 l0 59 q-1 9 10 9 ZM27 145 q12 -13 10 -40 q-4 -16 -18 -18 q-19 6 -9 25 q14 9 16 29 q1 4 1 4 Z" /><glyph glyph-name="" unicode="&#x6062;" d="M124 198 q-1 10 9 7 q36 -5 26 -14 q-3 -4 -4 -6 q-3 -20 -5 -28 l50 0 q1 0 4 7 q7 13 11 14 q6 2 26 -18 q4 -4 3 -5 q-1 -2 -6 -2 l-89 0 q-7 -30 -15 -49 q25 -38 7 -57 q-22 -12 -26 11 q1 3 7 8 q15 12 10 31 q-17 -41 -60 -77 l0 -30 q3 -12 -17 -14 q-7 -2 -8 0 q-2 1 -2 10 l0 208 q-1 9 9 7 q30 -2 20 -11 q-2 -2 -2 -3 l0 -35 q1 0 3 -1 q31 -8 34 -27 q1 -14 -12 -19 q-15 -4 -16 9 q0 1 0 2 q1 23 -9 28 l0 -116 q37 38 47 125 l-23 0 q-5 0 -7 2 q-1 2 3 2 l28 0 q3 21 4 41 ZM27 139 q9 3 13 -32 q-4 -18 -17 -18 q-18 5 -13 20 q1 2 5 6 q12 8 12 24 ZM156 131 q-1 12 8 9 q37 -2 26 -10 q-3 -5 -3 -9 q-1 -23 4 -46 q6 9 14 30 q3 11 11 5 q29 -20 16 -24 q-4 -1 -6 -2 q0 0 -1 -1 q-21 -12 -31 -21 q11 -45 49 -64 q5 -3 -1 -5 q-2 -1 -3 -1 q-9 -3 -19 -12 q-6 -7 -10 -2 q-29 25 -29 95 q-10 -45 -33 -68 q-42 -29 -65 -25 q48 25 60 52 q14 28 13 99 Z" /><glyph glyph-name="" unicode="&#x606f;" d="M114 213 q41 -5 23 -12 q-4 -2 -5 -3 q-7 -8 -10 -14 l37 0 q2 0 6 6 q5 7 8 8 q25 -9 34 -24 q0 -1 -4 -3 q-4 -2 -4 -4 l0 -82 q2 -15 -19 -14 q-14 -2 -14 8 l0 14 l-78 0 l0 -15 q2 -8 -22 -8 q-9 -1 -10 9 l0 98 q-1 20 12 15 q1 -1 4 -2 q16 -6 18 -5 l11 0 q0 2 0 5 q1 11 0 15 q-4 11 13 8 ZM102 179 q-16 1 -14 -8 l0 -16 l78 0 l0 24 l-64 0 ZM166 151 l-78 0 l0 -23 l78 0 l0 23 ZM88 123 l0 -26 l78 0 l0 26 l-78 0 ZM79 64 q30 -5 21 -15 q-2 -3 -2 -4 l0 -23 q-3 -15 26 -13 q41 -2 42 27 q2 10 3 11 q2 0 3 -9 q1 -13 13 -22 q9 -7 8 -13 q-7 -15 -44 -18 q-21 0 -46 0 q-36 -1 -34 37 l0 32 q-1 14 10 10 ZM154 33 q-17 -28 -32 -4 q0 1 0 4 q0 19 -17 38 q45 -7 49 -38 ZM46 51 q1 11 8 -7 q6 -17 4 -26 q-6 -20 -26 -20 q-21 3 -10 23 q1 2 7 5 q18 10 17 25 ZM239 17 q-2 -14 -15 -17 q-13 -1 -17 11 q0 1 0 4 q0 21 -19 41 q45 -4 51 -39 Z" /><glyph glyph-name="" unicode="&#x60c5;" d="M198 102 q24 -6 31 -18 q0 -2 -4 -7 q-2 -3 -2 -4 l0 -73 q0 -11 -13 -19 q-16 -10 -26 -5 q-1 1 -2 6 q-2 13 -14 18 q-3 1 -2 2 q2 1 6 1 q22 -1 21 11 l0 21 l-54 0 l0 -46 q2 -9 -17 -12 q-12 -3 -11 4 l0 111 q-1 13 7 9 q5 -2 12 -5 q5 -3 8 -4 l49 0 q1 0 4 4 q5 6 7 6 ZM139 66 l54 0 l0 21 l-46 0 q-9 1 -8 -7 l0 -14 ZM139 39 l54 0 l0 22 l-54 0 l0 -22 ZM160 209 q31 -1 22 -13 q-2 -2 -2 -3 l0 -18 l24 0 q10 16 15 16 q4 0 18 -11 q4 -3 6 -4 q3 -3 1 -4 q-1 -2 -7 -2 l-57 0 l0 -24 l14 0 q11 15 14 15 q5 0 22 -13 q1 -1 1 -1 q4 -3 2 -4 q-1 -2 -8 -2 l-45 0 l0 -24 l28 0 q1 1 4 5 q11 12 14 12 q6 -1 23 -17 q4 -4 -7 -4 l-150 0 q-8 2 -4 4 l63 0 l0 24 l-33 0 q-3 0 -4 3 q-2 2 1 2 l36 0 l0 24 l-48 0 q-4 0 -5 2 q-2 3 1 3 l52 0 l0 23 q-1 13 9 11 ZM28 140 q0 10 1 9 q1 1 5 -8 q10 -19 8 -33 q-4 -16 -13 -19 q-13 -2 -18 10 q0 6 7 16 q9 13 10 25 ZM82 133 q2 11 -6 16 l0 -165 q2 -7 -18 -12 q-10 -3 -9 6 l0 93 l0 127 q-2 12 10 9 q26 -2 19 -14 q-2 -4 -2 -6 l0 -29 q33 -5 33 -25 q-3 -13 -16 -14 q-12 1 -11 14 Z" /><glyph glyph-name="" unicode="&#x613f;" d="M214 214 q7 0 25 -15 q5 -5 4 -6 q0 -2 -7 -2 l-64 0 q1 -1 -6 -5 q-17 -10 -24 -20 l41 0 q1 0 3 4 q3 6 6 7 q17 -1 31 -17 q1 -3 -3 -6 q-3 -3 -3 -5 l0 -33 q2 -12 -13 -13 q-14 -4 -15 5 l0 4 l-17 0 q-8 1 -7 -11 l0 -28 q1 -13 -16 -20 q27 -7 27 -22 q0 -11 -13 -14 q-12 -1 -15 10 q0 1 0 2 q0 14 -17 24 q0 1 0 3 q0 12 -9 15 q-10 4 -1 5 q17 1 17 8 l0 28 l-26 0 q0 -3 -5 -8 q34 -14 14 -18 q-2 0 -2 0 q-29 -18 -62 -31 q-26 -67 -43 -66 q16 26 19 66 q5 44 3 141 q-1 8 1 9 q1 2 10 -1 q6 -2 13 -5 q10 -4 15 -4 l124 0 q1 0 5 7 q6 12 10 12 ZM79 191 q-15 1 -13 -9 q-1 -90 -8 -121 q27 19 39 41 q-13 -3 -12 9 l0 55 q0 8 2 9 q2 1 11 -2 q10 -4 21 -7 l8 0 q4 10 2 25 l-50 0 ZM122 161 q-12 1 -11 -7 l0 -12 l78 0 l0 19 l-67 0 ZM111 137 l0 -20 l78 0 l0 20 l-78 0 ZM180 94 q-6 6 18 2 q19 -4 26 -10 q15 -13 6 -27 q-16 -13 -25 4 q-1 1 -1 4 q-3 11 -24 27 ZM202 44 q-8 8 12 3 q22 -6 30 -14 q15 -17 -1 -30 q-20 -7 -26 12 q0 1 0 2 q-1 13 -15 27 ZM79 44 q5 12 9 -19 q0 -18 -7 -25 q-9 -7 -20 -3 q-13 6 -8 15 q3 5 10 10 q14 8 16 22 ZM128 35 l0 -16 q-4 -15 30 -14 q28 0 31 26 q2 7 3 8 q2 0 1 -7 q-1 -14 11 -24 q5 -4 5 -8 q3 -17 -50 -17 q-69 -6 -59 25 l0 27 q-1 15 9 13 q29 2 21 -10 q-2 -2 -2 -3 Z" /><glyph glyph-name="" unicode="&#x6210;" d="M127 207 q25 1 25 -7 q35 -4 41 -14 q8 -15 -6 -23 q-18 -7 -20 9 q0 22 -15 23 q0 -12 1 -46 l33 0 q1 0 7 9 q9 13 12 13 q8 -1 20 -18 q5 -5 4 -7 q0 -2 -6 -2 l-70 0 q0 -1 0 -5 q5 -53 11 -72 q11 26 15 50 q0 14 12 8 q2 -1 6 -3 q25 -9 22 -12 q0 -1 -3 -3 q-7 -5 -12 -17 q-11 -25 -26 -49 q21 -25 32 -21 q6 3 15 21 q1 1 1 2 q5 10 4 -6 q-1 -5 -1 -8 q-1 -12 8 -29 q6 -10 4 -13 q-7 -12 -35 -3 q-32 16 -51 37 q-26 -19 -46 -26 q-38 -18 -18 -4 q32 19 53 47 q-17 43 -20 106 l-48 0 q-17 2 -14 -12 q0 -19 0 -28 l17 0 q2 0 5 5 q3 6 6 7 q22 -5 31 -21 q0 -2 -3 -5 q-4 -4 -5 -7 q-2 -52 -8 -68 q-9 -13 -30 -12 q-4 1 -6 8 q-4 12 -18 14 q-1 -2 -3 -4 q-4 -9 -10 -18 q-11 -11 -24 -21 q-9 -7 -3 2 q26 37 24 108 q-1 27 -3 54 q0 4 0 4 q-1 7 1 8 q2 1 10 -1 q1 0 5 -2 q11 -3 17 -6 l58 0 q0 22 -3 48 q-3 12 7 10 ZM61 99 q1 -41 -8 -68 q11 -3 20 1 q13 3 11 67 l-23 0 Z" /><glyph glyph-name="" unicode="&#x6216;" d="M134 199 q-1 12 9 10 q33 -3 29 -10 q20 3 29 -5 q11 -10 4 -22 q-11 -12 -21 -2 q-1 1 -2 6 q-3 16 -11 21 q-6 1 -7 -41 l36 0 q1 0 6 8 q7 13 11 13 q4 1 20 -13 q3 -3 4 -4 q3 -4 3 -6 q0 -2 -3 -2 l-77 0 q3 -57 10 -76 q12 22 16 48 q1 11 10 7 q42 -15 25 -22 q-4 -4 -6 -6 q-2 -4 -8 -14 q-16 -28 -27 -43 q18 -30 34 -31 q4 0 16 24 q3 6 5 7 q1 0 0 -5 q-6 -25 4 -46 q5 -9 2 -13 q-16 -11 -44 5 q-27 17 -39 37 q-70 -41 -96 -36 q52 19 86 57 q-13 31 -17 107 l-110 0 q-4 0 -6 2 q0 2 4 2 l111 0 q0 22 0 43 ZM98 133 q22 -6 29 -21 q0 -1 -4 -4 q-4 -4 -4 -6 l0 -44 q2 -7 -17 -9 q-14 -3 -12 5 l0 9 l-28 0 l0 -10 q0 -11 -20 -12 q-10 -3 -9 8 l0 67 q0 12 2 13 q1 2 8 -1 q5 -2 10 -4 q5 -3 8 -3 l24 0 q1 0 4 4 q5 7 9 8 ZM70 116 q-8 1 -8 -11 l0 -37 l28 0 l0 48 l-20 0 ZM133 37 q-55 -23 -93 -42 q-12 -7 -14 -6 q-4 1 -11 22 q-1 3 -1 4 q-4 8 10 8 q19 2 69 11 q64 12 40 3 Z" /><glyph glyph-name="" unicode="&#x6237;" d="M168 184 q1 -15 -13 -22 q-13 -6 -21 6 q-2 3 -2 9 q-2 14 -15 24 q4 7 33 0 q16 -6 18 -17 ZM205 170 q25 -4 35 -22 q0 -2 -5 -6 q-5 -4 -5 -6 l0 -50 q3 -11 -19 -13 q-14 -2 -13 7 l0 10 l-105 0 q-5 -49 -19 -73 q-30 -39 -49 -40 q26 25 32 56 q7 32 6 119 q-1 19 9 13 q3 -1 12 -5 q15 -6 18 -6 l88 0 q2 0 6 6 q5 9 9 10 ZM105 150 q-11 1 -10 -12 q-1 -13 -2 -43 l105 0 l0 55 l-93 0 Z" /><glyph glyph-name="" unicode="&#x6240;" d="M108 205 q3 7 32 -21 q3 1 19 -5 q6 -2 9 -3 q14 5 38 22 q8 7 10 7 q5 1 28 -22 q3 -3 3 -5 q-1 -2 -6 -2 q-24 -1 -55 -5 q-18 0 -17 -10 q-1 -20 -2 -46 l35 0 q2 0 8 11 q6 11 8 11 q6 2 21 -12 q5 -4 7 -6 q4 -3 3 -5 q-1 -3 -5 -3 l-21 0 q-6 0 -6 -10 l0 -115 q3 -11 -19 -13 q-11 -3 -10 9 l0 129 l-21 0 q3 -103 -86 -128 q-8 -4 -9 -3 q0 1 7 6 q34 19 46 43 q11 19 13 71 q1 37 1 78 q-8 1 -45 -1 q-9 0 -14 0 q-20 1 -17 -13 q0 -7 -1 -33 l22 0 q2 0 4 5 q3 6 5 7 q14 1 32 -18 q1 -3 -4 -7 q-3 -3 -3 -4 l0 -45 q3 -9 -19 -13 q-10 -3 -10 7 l0 10 l-28 0 q-4 -51 -43 -87 q-5 -5 -7 -5 q-1 0 2 6 q13 20 17 45 q4 21 4 71 q-1 84 -1 86 q0 7 21 -1 q13 -5 16 -4 q15 6 29 16 q6 4 9 5 ZM89 126 l-27 0 l-1 -48 l28 0 l0 48 Z" /><glyph glyph-name="" unicode="&#x624b;" d="M207 197 q26 -23 24 -26 q-2 -4 -25 -1 q-4 0 -5 0 q-14 -1 -32 -2 q-13 -2 -20 -2 l0 -45 l34 0 q13 21 17 21 q6 0 22 -16 q5 -5 4 -7 q0 -2 -5 -2 l-72 0 l0 -43 l57 0 q12 19 16 19 q9 0 22 -15 q5 -4 5 -6 q0 -2 -4 -2 l-96 0 l0 -70 q-4 -37 -42 -30 q-3 2 -4 6 q-3 11 -19 20 q-8 4 3 4 q29 0 29 13 l0 57 l-95 0 q-4 0 -6 2 q-1 2 3 2 l98 0 l0 43 l-73 0 q-4 0 -6 2 q-2 2 2 2 l77 0 l0 43 q-11 0 -33 -1 q-21 0 -30 0 q-16 0 -20 3 q-1 2 14 4 q99 12 140 28 q1 0 2 1 q11 6 18 -2 Z" /><glyph glyph-name="" unicode="&#x652f;" d="M121 203 q35 -4 23 -14 q-3 -3 -3 -4 l0 -30 l54 0 q1 0 8 10 q7 10 9 11 q11 -2 30 -17 q4 -4 4 -7 q-1 -2 -6 -2 l-99 0 l0 -49 l13 0 q2 -1 7 7 q5 8 7 8 q25 -8 37 -22 q0 -2 -7 -6 q-8 -5 -10 -9 q-26 -39 -36 -49 q35 -18 91 -23 q6 0 -1 -4 q-10 -5 -15 -9 q-5 -5 -10 -14 q-3 -7 -6 -6 q-43 13 -81 36 q-39 -24 -95 -37 q-10 -2 -13 -1 q-2 2 6 5 q57 22 83 49 q-26 25 -37 70 l-21 0 q-4 0 -6 3 q-1 2 3 2 l60 0 l0 48 l-93 0 q-4 0 -6 2 q-2 3 2 3 l97 0 l0 40 q-1 11 11 9 ZM81 96 q11 -29 46 -54 q23 29 33 54 l-79 0 Z" /><glyph glyph-name="" unicode="&#x653f;" d="M153 194 q0 15 11 12 q28 -2 32 -8 q0 -3 -4 -7 q-4 -3 -5 -7 q-2 -8 -7 -21 q-5 -16 -6 -20 l32 0 q2 0 7 9 q6 10 9 11 q10 -1 25 -17 q4 -4 3 -6 q0 -1 -7 -1 l-35 0 q23 -6 23 -12 q0 -2 -4 -5 q-3 -3 -3 -4 q-11 -48 -31 -82 q17 -20 52 -34 q5 -1 5 -2 q-1 -2 -6 -4 q-11 -6 -19 -17 q-5 -8 -11 -3 q-21 14 -37 40 q-42 -33 -85 -41 q-12 -1 -3 3 q51 22 77 59 q-7 20 -12 49 q-1 9 -2 13 q-30 -41 -30 -29 q5 10 13 30 l-32 0 l0 -64 q55 8 34 -1 q-61 -22 -100 -39 q-12 -5 -15 -5 q-5 1 -11 25 q-2 9 10 10 q7 0 12 1 l0 96 q1 6 8 7 q25 1 19 -10 q-2 -4 -2 -6 l0 -84 q7 2 17 3 l0 137 l-53 0 q-3 0 -4 3 q-1 2 2 2 l84 0 q1 0 6 7 q7 11 10 11 q7 0 20 -14 q4 -4 3 -6 q-1 -2 -7 -2 l-22 0 q-11 0 -11 -11 l0 -55 q1 1 4 5 q8 11 11 10 q5 0 14 -10 q4 -4 5 -5 q7 22 16 89 ZM172 139 l-14 -30 q5 -30 19 -52 q16 38 16 82 l-21 0 Z" /><glyph glyph-name="" unicode="&#x6599;" d="M208 204 q24 -2 11 -12 q-1 -1 -1 -1 l0 -123 q1 0 5 7 q5 8 7 9 q6 -1 19 -11 q6 -5 5 -6 q0 -2 -7 -3 l-29 -5 l0 -73 q1 -10 -15 -12 q-15 -3 -14 7 l0 73 l-81 -16 q-4 -1 -7 1 q-1 2 3 3 l85 16 l0 142 q-2 6 19 4 ZM59 198 q0 5 12 4 q3 0 4 0 q23 -2 12 -12 q-1 -1 -1 -1 l0 -51 q6 10 12 30 q3 11 5 12 q24 -5 29 -17 q-1 -1 -4 -3 q-16 -9 -42 -33 l0 -10 l12 0 q0 0 4 6 q5 9 6 9 q3 0 15 -10 q2 -1 3 -2 q5 -5 4 -6 q-1 -2 -8 -2 l-36 0 l0 -13 q35 -10 38 -25 q2 -20 -15 -22 q-10 0 -11 16 q-1 20 -12 27 l0 -107 q2 -13 -16 -15 q-12 -2 -11 7 l0 76 q-31 -35 -44 -42 q0 0 3 5 q30 42 37 93 l-41 0 q-4 0 -5 3 q0 2 3 2 l47 0 l0 21 q-7 -12 -19 -11 q-12 -2 -8 24 q1 14 -8 23 q-2 2 -2 3 q22 -2 37 -22 l0 43 ZM134 176 q35 -1 43 -24 q-1 -20 -18 -22 q-17 -2 -12 23 q1 11 -11 21 q-3 2 -2 2 ZM140 115 q30 -7 36 -26 q1 -20 -17 -22 q-16 1 -12 21 q2 14 -6 25 q-2 2 -1 2 Z" /><glyph glyph-name="" unicode="&#x65b9;" d="M100 203 q44 2 49 -21 q1 -16 -14 -21 q-17 -3 -18 12 q-1 21 -15 29 q-2 1 -2 1 ZM211 174 q6 0 27 -18 q5 -5 5 -7 q0 -2 -5 -2 l-122 0 q19 -6 13 -12 q-4 -4 -4 -6 q0 -2 -1 -7 q-1 -14 -1 -21 l42 0 q2 0 4 5 q5 11 13 7 q12 -7 17 -11 q12 -9 4 -12 q-5 -2 -5 -4 q-7 -111 -30 -107 q-19 -7 -23 3 q-1 3 -2 5 q-4 6 -16 13 q-6 2 -5 3 q0 1 9 1 q27 -1 30 12 q6 32 8 81 l-46 0 q-7 -97 -89 -121 q-6 -2 -7 0 q-1 1 5 5 q40 24 51 56 q12 32 12 110 l-70 0 q-2 0 -4 2 q0 2 2 2 l173 0 q1 0 6 9 q7 13 9 14 Z" /><glyph glyph-name="" unicode="&#x65cf;" d="M136 195 q1 11 9 8 q42 -10 25 -19 q-3 -1 -3 -2 q-6 -9 -15 -24 l44 0 q1 0 5 7 q9 15 12 15 q10 -1 28 -21 q3 -3 2 -4 q-1 -1 -6 -1 l-88 0 l-5 -6 q38 -10 24 -17 q-3 -2 -4 -3 q-4 -3 -8 -9 q-3 -4 -5 -6 l41 0 q1 0 4 6 q7 12 10 12 q8 -2 22 -16 q3 -4 2 -5 q-1 -1 -8 -1 l-30 0 q-8 -1 -9 -12 q-2 -8 -4 -30 l22 0 q1 0 5 6 q7 12 11 12 q7 -1 22 -15 q4 -4 4 -6 q-1 -2 -6 -2 l-49 0 q9 -45 52 -58 q6 -3 2 -4 q-2 -1 -3 -1 q-9 -6 -15 -18 q-3 -11 -12 -2 q-27 21 -28 83 l-5 0 q-7 -42 -25 -56 q-41 -32 -65 -26 q58 23 61 82 l-35 0 q-3 0 -5 2 q-1 3 2 3 l39 0 q1 8 3 27 q1 12 1 15 l-7 0 q-14 -19 -42 -36 q-2 -59 -8 -73 q-12 -17 -32 -14 q-2 1 -3 6 q-5 16 -20 19 q-13 -17 -24 -26 q-12 -9 -6 2 q17 23 21 56 q6 33 5 108 l-23 0 q-4 0 -6 2 q-1 2 3 2 l72 0 q1 1 3 4 q7 13 11 13 q3 1 19 -12 q6 -5 7 -5 q5 11 11 40 ZM42 201 q-6 6 18 1 q15 -4 20 -11 q10 -17 -4 -27 q-18 -8 -23 10 q0 1 0 2 q1 18 -11 25 ZM77 151 q-8 1 -9 -10 q-1 -4 -2 -30 l11 0 q1 0 3 3 q3 7 7 8 q5 1 17 -7 q8 10 20 36 l-47 0 ZM137 139 q-10 -10 -30 -26 q10 -7 9 -12 q-3 -4 -8 -6 l-1 -16 q24 24 30 60 ZM66 106 q-4 -61 -22 -92 q18 -4 25 0 q11 -2 10 92 l-13 0 Z" /><glyph glyph-name="" unicode="&#x65e5;" d="M174 194 q26 -8 37 -24 q0 -2 -4 -6 q-5 -3 -5 -6 l0 -159 q3 -10 -18 -14 q-16 -5 -15 4 l0 22 l-81 0 l0 -21 q3 -7 -23 -9 q-9 -2 -8 6 l0 189 q0 9 3 11 q2 3 10 0 q6 -2 16 -6 q6 -2 9 -3 l65 0 q3 0 7 8 q4 8 7 8 ZM106 173 q-21 2 -18 -17 l0 -56 l81 0 l0 73 l-63 0 ZM88 96 l0 -80 l81 0 l0 80 l-81 0 Z" /><glyph glyph-name="" unicode="&#x65f6;" d="M190 206 q25 -1 26 -7 q0 -3 -2 -5 q-3 -3 -3 -6 l0 -50 l4 0 q6 15 13 18 q6 -2 20 -17 q3 -3 2 -4 q0 -2 -5 -2 l-34 0 l0 -137 q0 -14 -12 -22 q-17 -9 -28 -3 q-1 1 -2 5 q-2 14 -12 18 q-10 5 3 6 q22 1 22 9 l0 123 l-70 0 l0 -113 q1 -14 -20 -14 q-10 -1 -9 9 l0 13 l-31 0 l0 -18 q1 -12 -19 -11 q-10 -1 -8 4 l0 171 q-1 8 1 9 q3 2 10 -2 q9 -3 14 -6 l27 0 q3 0 7 8 q3 6 5 6 q22 -5 30 -21 q0 -2 -4 -4 q-3 -3 -3 -5 l0 -21 l70 0 l0 57 q-2 14 8 12 ZM61 169 q-10 1 -9 -12 l0 -55 l31 0 l0 67 l-22 0 ZM137 108 q17 -4 27 -16 q11 -15 1 -28 q-13 -13 -25 -1 q-2 3 -2 15 q-1 18 -6 24 q-1 1 -2 3 q-6 6 7 3 ZM52 98 l0 -66 l31 0 l0 66 l-31 0 Z" /><glyph glyph-name="" unicode="&#x660e;" d="M207 207 q27 -7 31 -20 q-1 -3 -4 -7 q-3 -3 -3 -4 l0 -166 q-3 -36 -39 -31 q-2 0 -4 5 q-3 12 -13 16 q-14 8 2 9 q24 1 24 11 l0 52 l-37 0 q-4 -60 -76 -87 q-46 -16 -23 -2 q54 25 63 58 q13 31 8 147 q0 11 1 12 q2 1 10 -1 q17 -6 23 -9 l24 0 q1 0 5 6 q5 10 8 11 ZM178 186 q-13 2 -12 -13 l0 -38 l35 0 l0 51 l-23 0 ZM166 130 l-2 -54 l37 0 l0 54 l-35 0 ZM62 182 q-10 0 -9 -13 l0 -54 l31 0 l0 67 l-22 0 ZM53 110 l0 -66 l31 0 l0 66 l-31 0 ZM112 31 q1 -13 -19 -14 q-10 -1 -9 9 l0 14 l-31 0 l0 -19 q1 -14 -19 -13 q-11 -2 -9 7 l0 170 q0 8 2 9 q2 2 9 -1 q3 -1 7 -3 q5 -2 7 -4 l28 0 q3 0 6 7 q4 8 6 8 q23 -6 30 -22 q-1 -2 -5 -4 q-3 -3 -3 -4 l0 -140 Z" /><glyph glyph-name="" unicode="&#x6708;" d="M170 204 q18 -2 34 -20 q2 -4 -5 -10 q-4 -3 -4 -5 l0 -162 q1 -21 -11 -27 q-16 -7 -31 -6 q-3 0 -3 6 q-2 17 -26 21 q-7 2 8 3 q25 1 30 5 q3 3 3 9 l0 63 l-73 0 q-4 -40 -21 -63 q-31 -42 -54 -40 q33 23 42 66 q5 22 6 55 q1 31 -1 91 q0 9 2 10 q1 2 8 -1 q20 -9 30 -9 l53 0 q4 1 7 7 q2 6 6 7 ZM106 186 q-12 1 -11 -11 q-1 -10 0 -29 q0 -6 0 -8 l70 0 l0 48 l-59 0 ZM94 133 q-1 -34 -2 -48 l73 0 l0 48 l-71 0 Z" /><glyph glyph-name="" unicode="&#x671f;" d="M37 198 q-1 10 6 9 q23 0 25 -5 q0 -2 -2 -5 q-2 -3 -2 -5 l0 -22 l28 0 l0 30 q-1 8 6 7 q24 0 26 -6 q0 -1 -2 -4 q-3 -4 -3 -6 l0 -21 q0 0 2 3 q6 8 9 8 q5 0 17 -9 q1 -1 1 -1 q0 18 0 17 q-1 10 9 6 q6 -2 16 -6 q6 -3 7 -3 l16 0 q1 0 7 6 q6 8 9 9 q25 -8 30 -21 q0 -1 -4 -5 q-5 -6 -5 -8 l0 -171 q-4 -26 -38 -24 q-4 0 -4 6 q-1 12 -14 19 q-1 1 -4 1 q-8 2 4 3 q11 0 19 1 q7 2 7 9 l0 59 l-30 0 q-2 -61 -60 -89 q0 0 -1 0 q-27 -14 -7 1 q35 25 40 76 l-131 0 q-4 0 -5 2 q-1 3 2 3 l26 0 l0 103 l-16 0 q-4 0 -5 3 q0 2 3 2 l18 0 l0 28 ZM203 181 l-19 0 q-9 1 -8 -9 l-1 -44 l28 0 l0 53 ZM64 165 l0 -31 l28 0 l0 31 l-28 0 ZM119 165 l0 -101 q1 0 4 5 q5 8 7 8 q6 0 14 -11 q1 -1 1 -1 q3 23 3 100 l-29 0 ZM64 130 l0 -32 l28 0 l0 32 l-28 0 ZM175 123 q-1 -39 -2 -50 l30 0 l0 50 l-28 0 ZM64 94 l0 -32 l28 0 l0 32 l-28 0 ZM88 46 q16 -2 30 -14 q15 -22 -2 -32 q-15 -4 -19 15 q-4 19 -13 27 q-6 4 -5 5 q1 1 9 -1 ZM54 42 q26 -10 24 -16 q-1 -1 -5 -3 q-5 -2 -7 -4 q-1 -1 -2 -2 q-18 -15 -43 -30 q0 0 -1 -1 q-16 -10 -7 3 q22 24 29 47 q3 12 12 6 Z" /><glyph glyph-name="" unicode="&#x672c;" d="M117 194 q-2 19 9 15 q31 -2 28 -7 q0 -1 -2 -3 q-4 -5 -4 -10 l0 -40 l47 0 q2 0 9 12 q6 10 7 10 q8 2 29 -19 q5 -4 4 -6 q0 -1 -5 -1 l-80 0 q12 -67 85 -95 q9 -3 0 -8 q-4 -2 -6 -3 q-6 -3 -12 -14 q-4 -7 -6 -7 q-4 -3 -28 21 l-44 0 l0 -55 q3 -10 -23 -12 q-9 -1 -8 10 l0 57 l-55 0 q-9 -7 -36 -22 q-10 -7 -12 -5 q0 1 10 9 q57 44 73 124 l-63 0 q-7 0 -10 2 q-3 2 3 2 l90 0 l0 45 ZM154 145 l-6 0 l0 -101 l4 0 q3 0 8 9 q4 7 6 7 q5 1 15 -6 q-21 30 -27 91 ZM117 107 q-21 -37 -50 -63 l50 0 l0 63 Z" /><glyph glyph-name="" unicode="&#x673a;" d="M61 207 q29 0 22 -9 q-3 -4 -3 -6 l0 -46 q1 0 8 8 q8 10 10 10 q8 -1 22 -17 q4 -4 3 -5 q0 -2 -6 -2 l-37 0 l0 -29 q33 -6 39 -22 q5 -15 -8 -24 q-14 -6 -19 8 q0 29 -12 31 l0 -123 q2 -9 -23 -13 q-7 -3 -6 11 l0 90 q-32 -43 -42 -41 q33 46 42 112 l-30 0 q-6 0 -8 2 q-2 2 3 2 l35 0 l0 54 q-1 9 10 9 ZM187 193 q20 -3 35 -22 q0 -3 -7 -8 q-3 -3 -3 -4 l-4 -140 q-2 -19 6 -18 q11 3 18 33 q2 8 2 7 q1 -1 0 -12 q-1 -19 12 -29 q4 -3 4 -5 q1 -16 -28 -20 q-10 -2 -20 0 q-25 0 -24 25 l4 174 l-16 0 q-6 -1 -6 -10 q-3 -110 -15 -146 q-13 -30 -53 -46 q-12 -4 -8 0 q33 20 40 57 q9 39 6 149 q-1 6 1 7 q2 2 7 0 q3 -1 9 -3 q12 -4 18 -4 l12 0 q0 0 2 3 q5 11 8 12 Z" /><glyph glyph-name="" unicode="&#x6750;" d="M59 205 q27 -1 28 -6 q0 -2 -2 -4 q-3 -3 -3 -6 l0 -43 l5 0 q1 0 5 6 q7 11 11 11 q7 0 26 -21 l45 0 l0 53 q-1 12 6 10 q27 -1 29 -6 q0 -1 -2 -3 q-3 -3 -3 -6 l0 -48 q0 0 4 5 q9 14 12 14 q5 -1 22 -17 q2 -3 2 -4 q-1 -2 -5 -2 l-35 0 l0 -138 q0 -25 -33 -28 q-9 -1 -11 8 q-4 13 -18 18 q-1 0 -4 1 q-11 1 4 1 q22 0 28 4 q3 3 3 14 l0 63 q-24 -31 -70 -61 q-20 -13 -3 3 q4 4 5 5 q52 57 60 109 l-33 0 q-5 1 -4 4 l-46 0 l0 -24 q19 -2 30 -9 q17 -11 12 -26 q-9 -16 -25 -7 q-4 2 -4 13 q-1 19 -13 24 l0 -114 q1 -22 -23 -21 q-6 -2 -5 11 l0 85 q-15 -18 -40 -40 q-11 -10 -5 0 q1 2 2 3 q37 60 41 105 l-34 0 q-3 0 -5 2 q-1 3 2 3 l39 0 l0 48 q0 12 5 11 Z" /><glyph glyph-name="" unicode="&#x67e5;" d="M119 204 q29 -1 30 -7 q0 -2 -3 -5 q-3 -2 -3 -3 l0 -22 l48 0 q1 0 7 9 q8 13 11 13 q9 -3 26 -16 q6 -6 6 -8 q0 -3 -6 -3 l-80 0 q24 -33 84 -44 q10 -2 10 -3 q0 -2 -4 -4 q-5 -4 -8 -7 q-5 -5 -9 -14 q-3 -6 -5 -6 q-55 21 -74 78 l-6 0 l0 -58 q-1 -14 -19 -15 q-13 -1 -12 11 l0 38 q-20 -27 -46 -42 q17 -5 26 -12 l68 0 q1 0 6 6 q5 8 7 8 q28 -8 33 -21 q0 -1 -4 -5 q-4 -3 -5 -5 l0 -49 q2 -15 -22 -14 q-11 -2 -10 10 l-74 0 q-1 -11 -17 -12 q-13 -1 -12 8 l0 83 q-19 -10 -38 -16 q-10 -3 -10 -2 q-1 1 7 6 q59 36 70 81 l-65 0 q-6 2 -3 5 l90 0 l0 31 q-1 7 6 6 ZM91 70 l0 -18 l74 0 l0 28 l-64 0 q-11 1 -10 -10 ZM91 48 l0 -29 l74 0 l0 29 l-74 0 ZM216 10 q10 -2 25 -17 q4 -4 5 -7 q0 -2 -4 -2 l-224 0 q-3 0 -4 2 q-1 2 2 2 l179 0 q1 0 7 9 q10 13 14 13 Z" /><glyph glyph-name="" unicode="&#x6821;" d="M111 142 l-35 0 l0 -18 q37 -8 40 -27 q8 15 13 31 q3 8 5 9 q25 -4 32 -18 q-1 -2 -5 -3 q-5 -1 -7 -4 q-2 -2 -7 -8 q-5 -5 -8 -8 q7 -33 21 -49 q9 19 13 44 q1 10 3 12 q10 1 31 -11 q-5 23 -28 40 q-5 4 -4 5 q48 -9 62 -33 q7 -23 -14 -30 q-12 0 -16 10 q-1 -1 -2 -4 q-15 -36 -26 -51 q12 -12 51 -22 q13 -4 13 -5 q0 -1 -3 -2 q-10 -3 -20 -14 q-2 -2 -3 -6 q-2 -11 -17 -1 q-19 10 -38 30 q-36 -29 -84 -35 q0 0 6 3 q45 21 65 51 q-12 22 -15 62 q-29 -26 -42 -30 q-1 1 5 10 q4 5 6 8 q-15 1 -16 18 q-1 17 -11 22 l0 -130 q1 -10 -17 -12 q-14 -2 -13 7 l0 90 q-25 -30 -40 -38 q-1 0 3 6 q31 48 35 101 l-30 0 q-4 0 -6 2 q-2 3 2 3 l37 0 l0 54 q-3 10 21 5 q21 -2 9 -12 q-1 -1 -1 -1 l0 -44 q3 2 8 8 q9 9 11 9 q4 0 16 -10 l90 0 q1 0 6 9 q6 9 8 10 q7 -1 22 -15 q6 -6 5 -7 q0 -2 -8 -2 l-118 0 q5 -5 4 -7 q-1 -2 -9 -2 ZM152 182 q-1 14 -13 20 q-3 1 -2 2 q39 3 48 -18 q3 -23 -19 -26 q-15 0 -14 20 q0 1 0 2 Z" /><glyph glyph-name="" unicode="&#x6848;" d="M100 206 q7 3 26 2 q13 -2 17 -6 q11 -11 0 -24 l46 0 q3 0 8 7 q4 6 6 6 q35 -9 37 -26 q-1 -1 -9 -1 q-24 -1 -35 -8 q-9 -6 -10 -6 q-1 0 4 8 q6 11 5 15 l-81 0 q6 -3 14 -8 q14 -6 13 -9 q0 -1 -2 -2 q-8 -4 -15 -14 l79 0 q1 0 6 6 q7 8 10 8 q16 -8 21 -17 q0 -2 -9 -2 l-37 0 q-5 2 -10 -4 q-12 -20 -18 -26 q9 -1 31 -10 q14 -8 13 -22 q19 -11 23 -19 q1 -2 -9 -2 l-74 0 q21 -29 85 -39 q9 -1 9 -2 q0 -1 -5 -4 q-7 -5 -11 -8 q-2 -2 -5 -9 q-4 -7 -5 -6 q-52 11 -76 68 l0 -65 q2 -10 -20 -12 q-10 -1 -9 10 l0 51 q-26 -29 -72 -44 q-22 -7 -25 -6 q-3 1 15 9 q39 20 59 57 l-60 0 q-5 0 -8 2 q-3 3 2 3 l89 0 l0 21 q-42 -11 -77 -9 q-8 1 -8 2 q0 1 7 2 q54 8 89 25 q-11 4 -45 5 q-15 1 -15 2 q-1 1 9 13 q10 12 13 17 l-61 0 q-5 0 -7 3 q-1 2 4 2 l8 0 q-9 13 2 23 q13 9 11 22 q0 3 1 3 q3 2 13 -10 l61 0 q-1 14 -15 25 q-3 2 -3 3 ZM109 173 l-51 0 q3 -16 -3 -26 q-3 -3 -9 -7 l43 0 q14 18 20 33 ZM121 135 q-11 -12 -20 -23 q26 -2 35 -2 q11 11 15 25 l-30 0 ZM148 90 q-13 -6 -25 -10 q2 0 5 -1 q20 -2 19 -5 q-1 -3 -5 -6 l0 -11 l54 0 q1 0 2 3 q2 3 2 3 q-8 -3 -22 8 q-3 2 -9 6 q-15 13 -21 13 Z" /><glyph glyph-name="" unicode="&#x6863;" d="M46 203 q-2 8 12 5 q22 -1 20 -5 q0 -2 -2 -4 q-3 -2 -3 -4 l-1 -43 l4 0 q2 0 7 7 q6 9 8 8 q13 -4 22 -14 q-2 14 -9 26 q-4 5 -3 6 q1 0 7 -3 q27 -13 31 -33 q2 -26 -15 -27 q-15 0 -11 17 q1 6 1 8 l-42 0 l0 -31 q32 -8 39 -24 q4 -19 -16 -22 q-9 0 -11 16 q-2 19 -12 23 l1 -125 q-1 -8 -19 -9 q-9 0 -8 4 l0 97 q-16 -26 -28 -39 q-8 -9 1 11 q18 38 27 99 l-30 0 q-4 0 -6 2 q-1 2 2 2 l34 0 l0 52 ZM146 203 q-2 7 12 5 q22 -2 21 -5 q0 -2 -2 -4 q-3 -3 -3 -7 l0 -88 l18 0 q2 0 6 7 q4 8 7 9 q21 -10 29 -21 q0 -1 -4 -4 q-4 -2 -4 -4 l0 -101 q-1 -11 -19 -11 q-11 -1 -11 5 l0 12 l-89 0 q-4 0 -6 2 q-2 2 2 2 l93 0 l0 51 l-79 0 q-4 0 -5 2 q-2 2 1 2 l83 0 l0 45 l-80 0 q-4 0 -6 2 q-1 2 3 2 l33 0 l0 99 ZM202 192 q21 -4 37 -19 q0 -3 -5 -4 q-6 -2 -9 -4 q-20 -21 -37 -41 q-6 -7 -5 -1 q1 2 1 3 q10 32 15 58 q2 8 3 8 Z" /><glyph glyph-name="" unicode="&#x6b63;" d="M201 201 q10 -2 27 -19 q3 -4 1 -6 q-1 -1 -9 -1 l-61 0 q-12 1 -12 -10 l0 -67 l29 0 q1 0 6 8 q8 15 12 14 q8 -2 23 -17 q1 -1 1 -1 q4 -4 3 -6 q-2 -2 -8 -2 l-66 0 l0 -89 l51 0 q1 0 7 9 q8 12 11 12 q9 -1 28 -18 q4 -4 4 -6 q-1 -2 -5 -2 l-228 0 q-4 0 -5 2 q-1 3 3 3 l40 0 l0 111 q-1 14 8 12 q35 2 24 -12 q-2 -3 -2 -4 l0 -107 l33 0 l0 170 l-79 0 q-3 0 -5 3 q-1 2 2 2 l150 0 q1 0 5 6 q8 15 12 15 Z" /><glyph glyph-name="" unicode="&#x6b66;" d="M145 200 q27 -1 29 -7 q1 -2 -3 -4 q-4 -2 -3 -5 q50 -1 49 -27 q-1 -13 -16 -15 q-14 -1 -17 11 q0 1 0 4 q0 18 -16 21 q1 -33 1 -54 l31 0 q0 0 5 5 q9 13 11 13 q6 0 22 -15 q5 -5 4 -6 q-1 -2 -7 -2 l-66 0 q3 -54 20 -84 q17 -24 26 -23 q7 2 17 33 q1 5 3 5 q1 -1 0 -6 q-2 -28 8 -49 q6 -10 4 -16 q-16 -15 -51 7 q-22 13 -36 39 q-62 -16 -110 -36 q-16 -6 -21 -6 q-3 -2 -9 21 q-2 8 8 10 q6 2 10 3 l0 68 q0 1 0 2 q-1 10 8 8 q34 -1 22 -12 q-2 -2 -2 -3 l0 -61 l16 1 l0 99 l-62 0 q-3 0 -4 2 q-1 2 2 2 l122 0 l-3 36 l-96 0 q-4 0 -5 3 q0 2 3 2 l60 0 q1 0 5 7 q7 9 9 10 q4 1 17 -10 q5 -4 7 -6 q-1 17 -1 23 q-1 14 9 12 ZM140 119 l-21 0 q-10 2 -8 -13 l0 -35 q2 1 6 6 q7 8 9 7 q4 0 15 -7 q3 -2 4 -3 q-3 19 -5 45 ZM147 66 l-36 0 l0 -42 l47 5 q-9 21 -11 37 Z" /><glyph glyph-name="" unicode="&#x6bd5;" d="M136 204 q2 0 6 -1 q20 -2 19 -6 q0 -1 -2 -4 q-3 -4 -3 -8 l0 -40 q19 15 34 38 q5 7 6 7 q25 -9 30 -25 q0 -1 -4 -2 q-8 0 -14 -3 q-2 -1 -6 -2 q-26 -10 -46 -20 l0 -21 q0 -15 23 -15 q33 -5 38 30 q3 9 4 9 q1 0 0 -10 q-1 -17 12 -28 q6 -6 5 -10 q-3 -12 -16 -15 q-9 -3 -47 -3 q-54 -2 -49 23 l0 20 q-38 -23 -66 -47 q-9 -7 -11 -7 q-9 9 -16 33 q0 1 4 3 q4 3 4 5 l0 89 q-2 11 12 7 q23 -3 22 -7 q0 -2 -3 -5 q-3 -4 -3 -7 l0 -28 l16 0 q1 0 6 7 q5 9 8 10 q4 1 21 -11 q4 -4 6 -5 l0 42 q0 6 1 7 q2 1 9 0 ZM69 149 l0 -43 q34 7 57 16 l0 27 l-57 0 ZM117 74 q30 -3 29 -7 q1 -2 -3 -4 q-3 -3 -3 -4 l0 -12 l57 0 q3 0 8 10 q5 9 8 11 q7 2 28 -19 q3 -3 2 -4 q0 -2 -4 -2 l-99 0 l0 -57 q1 -8 -20 -12 q-11 -2 -11 6 l0 63 l-91 0 q-10 1 -7 4 l98 0 l0 19 q-1 9 8 8 Z" /><glyph glyph-name="" unicode="&#x6c11;" d="M182 201 q25 -5 34 -22 q-1 -2 -4 -5 q-4 -4 -4 -5 l0 -44 q1 -10 -25 -10 q-9 -1 -7 6 l0 6 l-23 0 q-13 3 -9 -14 q1 -4 2 -12 q1 -13 3 -18 l42 0 q10 23 14 23 q9 0 31 -19 q6 -7 0 -9 l-86 0 q20 -67 61 -68 q6 0 13 24 q1 2 1 2 q4 14 5 14 q2 0 1 -14 q-1 -22 12 -38 q6 -8 5 -13 q-5 -15 -32 -12 q-26 4 -52 24 q-31 22 -47 81 l-50 0 l0 -64 q5 1 21 4 q30 7 30 4 q0 -2 -18 -14 q-28 -19 -43 -32 q-8 -9 -13 1 q-1 2 -11 20 q-4 7 2 10 q3 2 3 4 l0 171 q-1 8 2 10 q2 2 10 -2 q7 -2 22 -7 l97 0 q1 0 5 7 q5 10 8 11 ZM176 178 l-95 0 q-15 1 -14 -12 l0 -34 l109 0 l0 46 ZM67 127 l0 -45 l49 0 q-3 14 -5 45 l-44 0 Z" /><glyph glyph-name="" unicode="&#x6cbb;" d="M160 208 q51 -20 27 -22 q-6 -2 -7 -3 q-8 -9 -36 -36 q-14 -14 -20 -20 l77 1 q-5 21 -19 34 q0 6 36 -15 q34 -31 13 -53 q-13 -6 -24 0 q-6 4 -5 17 q0 5 0 7 q-63 -12 -91 -24 q-5 -2 -7 -2 q-12 11 -16 31 q1 1 10 2 q9 0 10 2 q27 49 38 78 q2 10 14 3 ZM187 73 l-38 0 q-18 1 -15 -10 l0 -64 l53 0 l0 74 ZM103 70 l0 13 q-1 8 12 2 q4 -2 10 -4 q8 -4 10 -4 l46 0 q1 0 4 6 q4 8 6 9 q25 -3 37 -18 q0 -3 -7 -9 q-4 -4 -4 -5 l0 -69 q3 -12 -14 -14 q-18 -5 -16 8 l0 10 l-53 0 l0 -10 q3 -9 -19 -12 q-11 -2 -12 6 l0 85 l0 6 ZM45 195 q1 0 3 0 q22 -3 29 -11 q10 -14 2 -28 q-9 -12 -24 -5 q-4 2 -4 12 q1 17 -9 25 q0 0 -1 1 q-12 7 4 6 ZM89 140 q0 -1 -5 -18 q-14 -49 -15 -55 q-9 -29 -4 -47 q0 -3 2 -9 q5 -17 1 -24 q-24 -27 -37 3 q0 3 3 13 q5 20 4 31 q-2 9 -15 15 q-7 2 -7 4 q0 1 7 1 q17 -1 23 9 q11 18 38 78 q5 13 7 14 q2 -1 -2 -15 ZM17 141 q23 -3 33 -13 q12 -13 4 -27 q-10 -13 -24 -4 q-3 2 -3 11 q-1 16 -10 27 q0 0 -2 1 q-11 6 2 5 Z" /><glyph glyph-name="" unicode="&#x6ce8;" d="M126 204 q-5 6 18 1 q18 -5 24 -11 q14 -17 2 -30 q-20 -15 -29 2 q-1 3 -1 9 q2 19 -14 29 ZM38 195 q-6 5 10 2 q20 -4 27 -9 q15 -14 5 -30 q-14 -15 -26 1 q-2 3 -2 9 q-1 16 -14 27 ZM98 168 q8 11 -3 -18 l98 0 q1 0 4 6 q7 16 12 16 q9 0 28 -20 q4 -4 2 -6 q-1 -1 -8 -1 l-50 0 q-12 1 -11 -11 l0 -52 l17 0 q1 0 4 6 q7 13 11 14 q9 -1 23 -17 q4 -4 3 -6 q0 -1 -5 -1 l-53 0 l0 -78 l29 0 q0 0 4 4 q11 16 14 16 q7 -1 23 -17 q7 -4 6 -6 q-1 -2 -10 -2 l-156 0 q-4 0 -6 2 q-2 3 2 3 l63 0 l0 78 l-43 0 q-4 0 -5 2 q-1 2 2 2 l46 0 l0 63 l-45 0 q-26 -72 -27 -94 q0 -13 3 -32 q3 -17 1 -23 q-4 -14 -23 -13 q-15 2 -14 17 q1 3 3 8 q6 13 3 32 q-1 8 -20 17 q-9 4 0 3 q16 0 22 2 q7 2 43 80 q10 21 13 26 ZM17 140 q2 7 28 -2 q15 -6 17 -17 q2 -15 -11 -23 q-13 -6 -19 7 q-1 3 -1 9 q0 17 -14 26 Z" /><glyph glyph-name="" unicode="&#x6d3b;" d="M190 200 q14 7 18 2 q34 -28 15 -27 q-3 0 -4 0 q-5 0 -16 -1 q-20 -1 -29 -2 l0 -48 l26 0 q1 0 5 7 q7 13 10 14 q7 -1 25 -18 q4 -4 3 -6 q-1 -2 -7 -2 l-62 0 l0 -44 l5 0 q2 0 6 6 q4 7 7 8 q24 -6 31 -22 q0 -1 -3 -4 q-3 -4 -3 -6 l0 -60 q3 -12 -17 -15 q-16 -5 -15 10 l0 15 l-55 0 l0 -17 q0 -8 -18 -10 q-12 -3 -11 9 l0 86 q0 6 3 7 q2 2 9 -1 q13 -5 20 -6 l9 0 l0 43 l-60 0 q-10 -26 -15 -56 q-2 -10 2 -34 q3 -28 -1 -34 q-9 -14 -25 -6 q-14 10 -10 26 q1 2 3 7 q6 14 5 29 q0 7 -15 14 q-8 4 1 3 q11 -2 19 5 q17 17 53 112 q7 11 1 -11 q41 6 90 27 ZM38 197 q-2 6 30 -2 q23 -11 15 -30 q-18 -22 -31 -1 q-1 3 -1 9 q1 15 -13 24 ZM99 170 l-16 -47 l59 0 l0 48 l-43 -1 ZM19 143 q-5 7 22 1 q15 -5 19 -14 q5 -17 -11 -25 q-16 -5 -19 13 q0 1 0 4 q-1 16 -11 21 ZM140 70 q-12 1 -11 -13 l0 -45 l56 0 l0 58 l-45 0 Z" /><glyph glyph-name="" unicode="&#x6d41;" d="M172 191 q0 -17 -16 -20 q-16 0 -16 17 q1 10 -9 16 q-2 1 -2 2 q39 4 43 -15 ZM29 198 q35 0 42 -18 q1 -17 -12 -20 q-15 -2 -17 14 q-1 11 -12 22 q-1 2 -1 2 ZM213 189 q4 0 20 -13 q3 -3 4 -3 q7 -6 7 -9 q-1 -3 -10 -3 l-54 0 q-18 -6 -65 -42 l77 0 q-5 15 -18 24 q-2 2 -2 3 q41 -2 52 -23 q8 -26 -13 -30 q-11 -1 -15 14 q-1 5 -2 7 q-23 -2 -88 -22 q31 -8 22 -16 q-2 -1 -2 -2 q-4 -42 -12 -58 q-18 -30 -53 -40 q-1 0 4 4 q22 19 28 40 q5 18 5 68 q-9 9 -11 30 q1 1 4 2 q14 1 27 21 q6 8 12 20 l-35 0 q-4 0 -6 3 q-2 2 2 2 l105 0 q0 0 5 7 q10 16 12 16 ZM51 122 q2 -18 -13 -21 q-18 0 -18 17 q1 7 -8 16 q-4 3 -3 4 q37 5 42 -16 ZM153 92 q18 -1 12 -10 q-2 -3 -2 -4 l0 -89 q0 -8 -16 -10 q-12 -3 -11 7 l0 99 q-3 10 17 7 ZM193 91 q19 -2 11 -12 q-1 -2 -1 -2 l0 -63 q0 -8 8 -7 q9 1 17 28 q1 6 2 6 q0 0 1 -5 q1 -21 5 -26 q1 -2 4 -5 q12 -8 2 -17 q-10 -9 -30 -9 q-39 -1 -36 19 l0 88 q-2 8 17 5 ZM61 59 q-3 -18 5 -55 q0 -21 -21 -23 q-20 0 -15 22 q1 3 3 10 q6 21 4 28 q-2 13 -17 19 q-4 1 -4 2 q0 0 4 1 q22 2 29 19 q14 32 28 73 q9 25 10 22 q1 0 -3 -16 q-14 -50 -23 -102 Z" /><glyph glyph-name="" unicode="&#x6e14;" d="M129 201 q34 -6 33 -12 q-1 -2 -6 -5 q-5 -3 -6 -5 q-1 -1 -3 -3 q-7 -8 -9 -12 l33 0 q3 0 8 8 q5 8 7 8 q29 -11 37 -29 q-2 -2 -9 -3 q-11 -1 -19 -5 q-24 -14 -31 -22 l24 0 q1 0 5 4 q4 7 7 7 q26 -9 33 -24 q-1 -1 -4 -4 q-6 -4 -6 -6 l0 -76 q0 -8 -3 -9 q8 -6 21 -18 q4 -3 3 -6 q-1 -2 -6 -2 l-161 0 q-10 0 -10 3 q-10 -16 -29 -10 q-7 3 -7 20 q0 1 2 7 q5 12 4 21 q-2 18 -15 25 q-1 0 -3 1 q-11 4 4 4 q12 0 18 5 q13 20 42 98 q9 25 6 3 q-1 -3 -1 -4 q-2 -8 -7 -25 q-5 -20 -6 -26 q31 32 42 81 q1 15 12 11 ZM37 192 q28 2 35 -14 q7 -22 -16 -26 q-11 1 -13 16 q-2 13 -9 18 q0 0 -2 1 q-14 4 5 5 ZM135 160 q-2 -2 -18 -20 q-9 -11 -12 -14 q5 -1 12 -4 q4 -2 5 -2 l32 0 q7 6 19 40 l-38 0 ZM17 134 q25 0 34 -12 q12 -23 -12 -29 q-11 0 -15 18 q-2 14 -8 17 q-1 0 -2 1 q-11 4 3 5 ZM95 118 q-3 -2 -11 -7 q-8 -6 -11 -8 q-1 -4 -4 -14 q-4 -15 -4 -15 q0 -1 -1 -3 q-9 -28 -2 -44 q7 -25 5 -35 l134 0 q2 0 8 11 q4 8 5 8 q-22 -3 -21 4 l0 11 l-72 0 l0 -10 q-1 -11 -18 -11 q-9 0 -8 9 l0 104 ZM128 116 q-7 0 -7 -10 l0 -32 l22 0 l0 42 l-15 0 ZM181 116 q-10 0 -10 -10 l0 -31 l22 0 l0 41 l-12 0 ZM171 70 l0 -40 l22 0 l0 40 l-22 0 ZM143 70 l-22 0 l0 -40 l22 0 l0 40 Z" /><glyph glyph-name="" unicode="&#x7167;" d="M64 183 q-6 0 -6 -8 l0 -46 l22 0 l0 54 l-16 0 ZM58 124 l0 -53 l22 0 l0 53 l-22 0 ZM45 34 q2 15 9 -13 q4 -17 -1 -24 q-10 -16 -26 -15 q-19 4 -12 20 q1 3 10 8 q21 12 20 24 ZM172 13 q8 -15 -5 -25 q-18 -10 -24 5 q-1 2 0 8 q4 20 -13 33 q19 4 42 -21 ZM74 35 q19 4 38 -21 q9 -17 -6 -27 q-20 -7 -22 13 q0 0 0 2 q3 20 -10 33 ZM106 64 q1 -12 -9 -13 q-20 -5 -17 8 l0 7 l-22 0 l0 -10 q1 -9 -14 -11 q-12 -4 -11 7 l0 133 q0 7 2 9 q2 2 7 -1 q1 -1 11 -4 q5 -1 7 -2 l16 0 q1 0 4 4 q3 6 6 7 q22 -3 27 -19 q-1 -3 -4 -5 q-3 -2 -3 -4 l0 -106 ZM237 13 q9 -21 -6 -31 q-23 -9 -25 18 q3 21 -19 36 q23 5 50 -23 ZM179 187 q-6 0 -7 -6 q-5 -41 -34 -57 q-35 -19 -25 -6 q32 21 31 69 l-25 0 q-3 0 -4 3 q-1 2 2 2 l80 0 q2 0 3 4 q3 6 7 7 q23 -6 31 -22 q0 -2 -4 -4 q-4 -2 -5 -4 q-2 -30 -11 -43 q-11 -10 -31 -7 q-2 1 -3 6 q-3 8 -15 13 q-5 2 5 3 q14 0 17 2 q9 6 9 40 l-21 0 ZM164 108 q-9 1 -8 -6 l0 -33 l38 0 l0 39 l-30 0 ZM200 120 q18 -2 28 -15 q1 -3 -3 -7 q-2 -1 -2 -2 l0 -36 q2 -12 -22 -14 q-8 -3 -7 11 l0 7 l-38 0 l0 -7 q3 -8 -18 -9 q-7 -2 -7 10 l0 55 q0 5 2 6 q1 1 7 -1 q3 -1 9 -2 q8 -2 9 -3 l33 0 q1 0 3 3 q4 4 6 4 Z" /><glyph glyph-name="" unicode="&#x7247;" d="M133 202 q-1 7 7 6 q30 -1 30 -7 q0 -2 -3 -5 q-3 -3 -3 -5 l0 -61 l28 0 q2 0 9 10 q8 12 11 12 q9 -1 26 -17 q5 -5 3 -7 q-2 -3 -10 -3 l-152 0 q-2 -40 -3 -51 l57 0 q3 0 8 9 q5 7 7 7 q20 -6 32 -20 q0 -3 -5 -7 q-5 -3 -5 -5 l0 -74 q-1 -12 -21 -13 q-10 0 -10 7 l0 91 l-64 0 q-6 -48 -39 -76 q-17 -14 -20 -14 q-3 1 9 16 q24 29 23 93 q0 84 0 90 q-1 13 8 13 q28 -3 29 -6 q0 -2 -2 -5 q-3 -3 -3 -7 q-1 -19 -1 -43 l54 0 l0 72 Z" /><glyph glyph-name="" unicode="&#x7267;" d="M154 211 q47 -8 30 -15 q-4 -3 -5 -6 q-8 -13 -21 -42 l40 0 q1 0 7 8 q7 12 10 12 q7 0 23 -16 q5 -5 4 -7 q-1 -2 -8 -2 l-35 0 q2 -1 8 -3 q19 -5 18 -8 q0 -2 -3 -4 q-7 -5 -10 -14 q-1 -3 -3 -12 q-10 -38 -22 -59 q15 -17 49 -32 q10 -5 10 -6 q0 -2 -5 -4 q-9 -2 -14 -6 q-3 -3 -6 -8 q-4 -6 -7 -6 q-6 0 -34 28 q-7 7 -11 11 q-33 -27 -66 -39 q-8 -3 -9 -2 q-1 0 6 5 q34 20 59 57 q-15 44 -18 69 q-8 -15 -24 -33 q-6 -5 -7 -4 q-1 1 3 9 q6 12 15 43 l2 7 q8 30 11 67 q-2 17 13 12 ZM183 143 l-26 0 q-7 -13 -11 -23 q9 -36 25 -57 q12 38 12 80 ZM62 201 q-2 9 13 7 q27 -2 18 -11 q-2 -2 -2 -3 l0 -48 q2 0 7 7 q5 6 6 6 q6 -1 16 -14 q3 -6 -1 -6 l-28 0 l0 -44 q8 3 23 8 q6 2 6 0 q0 -2 -7 -6 q-3 -2 -11 -9 q-8 -6 -11 -9 l0 -83 q2 -12 -19 -14 q-10 -2 -10 8 l0 75 q-5 -3 -16 -10 q-10 -7 -13 -9 q-12 -9 -17 10 q-1 2 -2 5 q-9 14 6 15 q12 4 42 12 l0 51 l-14 0 q-12 -29 -26 -46 q-5 -7 -7 -7 q-1 1 1 10 q7 25 8 68 q-2 18 10 13 q1 0 3 0 q21 -3 21 -7 q1 -2 -1 -4 q-2 -3 -3 -5 q-4 -14 -5 -17 l13 0 l0 57 Z" /><glyph glyph-name="" unicode="&#x72b6;" d="M152 207 q1 0 2 0 q21 1 26 -4 q3 -3 1 -6 q-2 -3 -2 -4 q37 -1 42 -19 q1 -14 -12 -20 q-14 -3 -16 10 q0 22 -15 24 q-1 -9 -2 -30 q-2 -28 -3 -35 l30 0 q1 0 5 7 q7 15 10 15 q10 -2 28 -20 q3 -4 1 -6 q-1 -1 -10 -1 l-58 0 q8 -75 65 -110 q8 -4 2 -7 q-1 -1 -2 -1 q-14 -5 -22 -16 q-4 -9 -12 2 q-33 36 -37 126 q-9 -113 -81 -132 q1 -3 -14 -6 q-16 -6 -14 7 l0 91 q-17 -17 -30 -37 q-5 -9 -8 -9 q-6 0 -14 26 q-2 8 12 13 q21 9 40 20 l0 112 q0 10 7 9 q34 1 23 -11 q-2 -3 -2 -4 l0 -69 l50 0 q1 25 1 72 q-3 15 9 13 ZM52 136 q9 -20 -6 -32 q-19 -10 -22 12 q0 2 1 7 q6 17 -5 30 q12 6 32 -17 ZM92 118 l0 -134 q48 23 50 134 l-50 0 Z" /><glyph glyph-name="" unicode="&#x73b0;" d="M196 204 q19 -4 33 -19 q-1 -3 -5 -7 q-3 -2 -3 -3 l0 -102 q1 -10 -19 -13 q-10 -2 -9 7 l0 10 q0 -1 -2 -4 q-2 -3 -2 -4 l0 -51 q-2 -12 20 -11 q13 0 23 32 q2 8 3 7 q1 0 0 -8 q-1 -17 11 -27 q5 -4 5 -6 q2 -14 -29 -20 q-6 -1 -22 -1 q-41 0 -37 23 l0 41 q-8 -18 -42 -41 q-54 -26 -65 -21 q63 27 79 59 q18 30 16 111 q0 11 9 10 q27 -1 22 -10 q-2 -3 -2 -5 q-2 -40 -6 -66 q13 -2 19 -4 l0 106 l-44 0 q-9 0 -9 -6 q0 -1 0 -2 l0 -108 q1 -12 -16 -16 q-11 -3 -10 7 l0 128 q0 9 1 10 q1 1 9 -2 q4 -1 9 -4 q7 -3 13 -3 l38 0 q1 0 4 5 q5 7 8 8 ZM91 201 q5 0 19 -14 q4 -4 3 -5 q0 -1 -6 -1 l-21 0 q-10 1 -9 -9 l0 -55 q2 1 6 7 q4 6 6 6 q6 -1 16 -12 q3 -4 2 -5 q-1 -1 -7 -1 l-23 0 l0 -55 q44 8 29 0 q-32 -17 -61 -33 q-16 -10 -18 -9 q-4 -1 -12 23 q-3 8 16 11 q10 2 16 3 l0 60 l-30 0 q-3 0 -5 2 q-1 2 2 2 l33 0 l0 65 l-28 0 q-3 0 -4 2 q-2 2 1 2 l59 0 q1 0 4 5 q8 11 12 11 Z" /><glyph glyph-name="" unicode="&#x7406;" d="M205 203 q27 -6 31 -22 q0 -1 -3 -3 q-4 -3 -4 -4 l0 -84 q2 -11 -19 -14 q-12 -4 -11 8 l0 8 l-22 0 l0 -43 l19 0 q1 0 7 8 q6 9 8 10 q6 0 24 -16 q3 -4 2 -5 q0 -2 -5 -2 l-55 0 l0 -46 l27 0 q1 0 6 7 q6 11 9 12 q7 0 25 -17 q5 -4 4 -5 q0 -1 -10 -1 l-155 0 q-3 0 -4 2 q-1 2 1 2 l71 0 l0 46 l-48 0 q-3 0 -4 2 q-1 3 2 3 l50 0 l0 42 l-22 0 l0 -9 q2 -7 -14 -9 q-12 -4 -11 8 l0 29 l-37 0 l0 -60 q50 12 36 4 q-43 -23 -70 -46 q-7 -5 -9 -5 q-5 1 -11 26 q-3 10 13 13 q8 1 14 3 l0 65 l-23 0 q-4 0 -6 3 q0 2 4 2 l25 0 l0 62 l-19 0 q-4 0 -5 2 q-1 2 3 2 l47 0 q1 0 4 6 q7 11 9 11 q5 1 17 -8 q5 -3 8 -5 l0 8 q0 6 2 7 q2 1 9 -3 q1 0 2 -1 q11 -6 16 -6 l61 0 q1 0 3 4 q4 9 8 9 ZM184 186 q-8 1 -7 -8 l0 -35 l22 0 l0 43 l-15 0 ZM138 186 q-11 1 -9 -9 l0 -35 l22 0 l0 44 l-13 0 ZM104 178 l-29 0 q-9 1 -8 -10 l0 -52 q1 0 6 7 q5 8 7 8 q4 -1 17 -11 q6 -4 7 -5 l0 63 ZM177 138 l0 -42 l22 0 l0 42 l-22 0 ZM129 138 l0 -42 l22 0 l0 42 l-22 0 Z" /><glyph glyph-name="" unicode="&#x751f;" d="M132 202 q31 -2 22 -11 q-2 -2 -2 -3 l0 -53 l35 0 q1 0 7 9 q8 12 11 12 q7 -1 20 -18 q3 -4 3 -5 q-1 -2 -6 -2 l-70 0 l0 -63 l28 0 q2 0 8 9 q6 11 9 11 q9 -1 21 -19 q2 -3 1 -4 q-1 -2 -4 -2 l-63 0 l0 -70 l51 0 q1 0 7 8 q8 12 11 12 q7 -1 19 -16 q4 -5 3 -6 q-1 -2 -8 -2 l-210 0 q-3 0 -5 2 q-1 2 2 2 l98 0 l0 70 l-60 0 q-3 0 -4 3 q-1 2 2 2 l62 0 l0 63 l-37 0 q-45 -73 -56 -65 q30 50 32 103 q-2 19 15 13 q29 -4 30 -10 q0 -2 -4 -5 q-3 -4 -5 -7 q-7 -14 -11 -25 l36 0 l0 51 q-4 19 12 16 Z" /><glyph glyph-name="" unicode="&#x7533;" d="M111 196 q-2 14 14 12 q29 -2 20 -13 q-2 -2 -2 -3 l0 -35 l36 0 q1 0 5 5 q6 10 10 10 q19 -7 32 -22 q0 -4 -6 -8 q-4 -3 -4 -5 l0 -93 q0 -9 -16 -10 q-14 -2 -13 6 l0 9 l-44 0 l0 -70 q2 -10 -22 -11 q-10 -2 -10 10 l0 71 l-43 0 l0 -12 q2 -9 -19 -10 q-10 -2 -9 7 l0 127 q0 10 22 -1 q7 -3 8 -3 l41 0 l0 39 ZM111 153 l-33 0 q-11 1 -10 -9 l0 -37 l43 0 l0 46 ZM143 153 l0 -46 l44 0 l0 46 l-44 0 ZM68 102 l0 -48 l43 0 l0 48 l-43 0 ZM143 102 l0 -48 l44 0 l0 48 l-44 0 Z" /><glyph glyph-name="" unicode="&#x7801;" d="M200 201 q21 -4 32 -22 q0 -3 -6 -7 q-3 -2 -3 -3 l-7 -75 q0 0 2 1 q3 4 6 4 q16 -5 27 -21 q0 -4 -5 -7 q-3 -2 -3 -4 q-3 -83 -19 -87 q-17 -10 -31 -8 q-4 2 -5 8 q-2 12 -15 18 q-6 2 3 2 q21 -2 26 2 q7 4 9 36 l-100 0 l0 -21 q2 -9 -19 -12 q-8 -3 -8 11 l0 12 l-19 0 l0 -23 q3 -10 -15 -12 q-12 -3 -10 10 l0 74 q-27 -29 -24 -17 q29 37 38 116 l-32 0 q-3 0 -4 3 q-1 2 2 2 l68 0 q1 0 7 8 q8 10 10 10 q4 1 16 -7 q4 -3 6 -4 l62 0 q1 0 5 5 q3 7 6 8 ZM131 183 q3 -4 3 -5 q0 -2 -4 -2 l-34 0 q-9 1 -14 -13 q-2 -7 -9 -27 q-7 -16 -9 -23 l14 0 q1 0 3 5 q3 6 6 7 q28 -7 31 -22 q0 -2 -4 -4 q-3 -3 -3 -5 l0 -52 l56 0 q1 0 4 6 q8 13 11 12 q10 -1 29 -18 q2 11 3 38 l-56 0 q-1 0 -3 -3 q-3 -4 -5 -5 q-5 -2 -21 7 q-1 1 -1 1 q-8 4 0 10 q3 3 3 4 q2 21 4 62 q-1 15 8 12 q31 -3 22 -13 q-2 -3 -2 -4 l-5 -66 l29 0 l8 98 l-64 0 ZM73 109 q-8 0 -8 -12 l0 -64 l19 0 l0 76 l-11 0 Z" /><glyph glyph-name="" unicode="&#x793e;" d="M42 200 q7 4 29 -3 q23 -11 15 -30 q-10 -12 -20 -9 q-10 4 -10 18 q1 12 -11 21 q-3 2 -3 3 ZM163 200 q32 -2 21 -12 q-3 -3 -3 -4 l0 -75 l15 0 q2 0 9 12 q7 12 8 12 q5 0 17 -19 q2 -2 2 -2 q3 -5 3 -6 q-1 -1 -6 -1 l-48 0 l0 -107 l26 0 q1 0 5 6 q8 13 10 13 q6 0 18 -17 q4 -3 3 -4 q0 -2 -6 -2 l-140 0 q-6 2 -3 4 l58 0 l0 107 l-40 0 q-8 2 -4 4 l44 0 l0 78 q-3 16 11 13 ZM83 156 q29 -11 34 -26 q-1 -2 -5 -3 q-5 -1 -8 -3 q-15 -13 -20 -23 q24 -7 32 -14 q11 -13 4 -26 q-8 -11 -21 -6 q-5 2 -6 13 q-2 18 -12 27 l0 -115 q1 -9 -16 -11 q-14 -2 -13 8 l0 96 q-57 -39 -36 -18 q25 23 36 40 l0 11 q0 8 9 6 q2 0 2 0 q4 6 11 25 l-58 0 q-7 3 -3 5 l59 0 q1 0 5 6 q4 8 6 8 Z" /><glyph glyph-name="" unicode="&#x79bb;" d="M107 204 q-3 6 25 1 q16 -3 19 -11 q7 -16 -8 -25 l61 0 q12 20 16 20 q9 0 26 -17 q5 -5 4 -6 q-1 -2 -8 -2 l-90 0 q27 -16 18 -21 q-3 -1 -4 -2 q-4 -3 -9 -7 q-3 -2 -4 -3 q32 -16 14 -38 l14 0 l0 47 q-1 14 7 12 q33 0 25 -9 q-2 -3 -2 -4 l0 -44 q3 -17 -16 -18 q-14 -3 -14 5 l0 7 l-29 0 q3 -5 -5 -9 q-4 -2 -5 -3 q-7 -9 -12 -15 l59 0 q1 0 4 5 q4 6 7 7 q23 -5 33 -22 q-1 -3 -5 -7 q-3 -3 -3 -4 l0 -46 q-2 -21 -37 -24 q-5 0 -5 5 q0 12 -15 17 q-11 3 0 4 q27 0 27 7 l0 53 l-68 0 q-5 -5 -17 -21 q-3 -4 -5 -7 l44 0 q-2 8 -11 17 q0 7 37 -12 q10 -11 4 -23 q-7 -11 -21 -7 q-4 2 -5 9 q0 6 -2 9 q-24 -4 -48 -15 q-10 -5 -14 -5 q-5 1 -9 21 q-2 6 3 6 q5 0 7 2 q2 2 10 21 q2 4 3 6 l-28 0 q-9 2 -8 -13 l0 -58 q1 -11 -17 -13 q-13 -4 -12 6 l0 85 q0 11 12 6 q16 -9 23 -9 l32 0 q4 9 9 27 l-30 0 q-1 0 -3 -3 q-3 -6 -7 -8 q-9 -1 -26 11 q-2 3 3 7 q2 2 2 3 l0 44 q-1 14 10 12 q25 -1 19 -9 q-3 -3 -3 -5 l0 -48 l7 0 q21 13 36 37 q-7 7 -24 16 q-9 4 5 2 q17 -3 28 -7 q5 8 11 23 l-119 0 q-4 0 -6 2 q-3 3 1 3 l106 0 q-4 3 -6 15 q-1 16 -11 20 ZM136 117 q-25 -17 -43 -24 l63 0 q-6 3 -9 10 q-5 9 -11 14 Z" /><glyph glyph-name="" unicode="&#x79f0;" d="M151 211 q2 0 5 -1 q25 -4 24 -8 q-1 -2 -4 -3 q-6 -4 -8 -10 q-1 -2 -3 -7 q-8 -17 -14 -24 l48 0 q2 0 8 7 q5 8 8 9 q31 -18 33 -34 q-2 -2 -10 -2 q-19 1 -30 -11 q-1 -1 -3 -4 q-9 -12 -5 2 q6 27 3 28 l-54 0 q-16 -21 -37 -40 q-7 -6 -8 -6 q-2 0 1 6 q6 12 9 18 l-37 0 l0 -22 q25 -9 31 -19 q9 -17 -4 -27 q-18 -8 -20 12 q0 1 0 4 q3 17 -7 26 l0 -116 q1 -12 -21 -11 q-8 -1 -7 8 l0 81 q-21 -23 -27 -28 q-12 -12 -14 -12 q-3 0 5 13 q27 42 34 91 l-34 0 q-8 2 -4 4 l40 0 l0 36 q-46 -6 -30 1 q1 0 3 1 q38 14 58 28 q10 10 19 1 q22 -17 20 -20 q-1 -2 -9 -2 q-8 0 -12 -1 q-2 0 -8 -1 q-8 -2 -13 -3 l0 -39 q0 0 3 3 q8 12 11 12 q8 0 24 -18 q17 38 22 71 q-2 13 14 7 ZM156 127 q-2 11 13 9 q24 -3 23 -6 q0 -3 -3 -5 q-2 -3 -3 -6 l0 -23 q47 -16 60 -47 q4 -22 -11 -30 q-19 -6 -21 15 q-2 43 -27 56 l0 -91 q0 -10 -13 -17 q-18 -7 -30 -4 q-2 1 -3 6 q-3 14 -15 18 q-8 4 3 4 q27 0 27 12 l0 73 q-6 -8 -14 -22 q-17 -27 -31 -43 q-11 -14 -15 -15 q-3 -1 4 12 q18 35 21 71 q0 7 2 8 q2 1 8 -1 q4 -1 14 -3 q7 -2 11 -3 l0 32 Z" /><glyph glyph-name="" unicode="&#x7ba1;" d="M66 205 q40 -7 26 -13 q-3 -1 -4 -2 q-2 -3 -8 -10 q-5 -7 -6 -8 l30 0 q1 0 6 7 q6 10 8 10 q3 0 17 -9 q5 -3 6 -4 q1 2 3 7 q3 9 4 13 q1 1 1 4 q1 7 9 5 q36 -5 26 -12 q-3 -2 -4 -3 q-10 -10 -16 -18 l38 0 q2 0 8 9 q6 8 7 8 q6 1 21 -14 q3 -3 3 -5 q-1 -2 -6 -2 l-59 0 q22 -11 23 -23 q1 -10 -11 -17 q-12 -5 -16 4 q-2 4 -2 13 q1 16 -12 20 q-3 -2 -7 -6 q-6 -5 -14 -10 q12 -7 14 -15 q3 -9 -5 -17 l53 0 q2 0 6 6 q4 8 8 9 q24 -10 34 -30 q0 -3 -7 -3 q-20 1 -39 -13 q0 0 -4 -4 q-5 -3 -5 -4 l0 -21 q0 -9 -10 -12 q26 -16 24 -18 q0 -2 -2 -5 q-3 -4 -3 -7 l0 -29 q2 -10 -19 -12 q-11 -2 -11 9 l0 12 l-73 0 l0 -13 q0 -9 -15 -11 q-12 -4 -12 5 l0 117 q0 10 9 8 q1 -1 2 -1 q2 -1 7 -3 q10 -4 13 -4 l56 0 q2 0 5 5 q4 5 6 6 q4 2 30 -15 q16 21 4 24 l-145 0 q5 -21 -10 -31 q-12 -6 -19 0 q-8 9 -2 20 q2 2 6 6 q14 10 6 26 q-31 -24 -22 -12 q27 32 38 75 q2 13 11 8 ZM80 168 q25 -19 22 -32 q-4 -12 -17 -12 q-11 2 -10 15 q0 1 0 3 q1 19 -8 22 q-14 -16 -25 -27 q11 -12 15 -20 l66 0 q0 4 1 9 q3 11 -8 21 q-4 5 12 3 q6 11 10 18 l-58 0 ZM107 88 q-10 1 -9 -8 l0 -18 l65 0 l0 26 l-56 0 ZM98 57 l0 -24 l67 0 q5 9 8 11 q-1 1 -4 2 q-6 2 -6 6 l0 5 l-65 0 ZM98 28 l0 -29 l73 0 l0 29 l-73 0 Z" /></font>
</defs>
</svg>
